<?xml version="1.0" standalone="no"?>
<!DOCTYPE svg PUBLIC "-//W3C//DTD SVG 1.1//EN" "http://www.w3.org/Graphics/SVG/1.1/DTD/svg11.dtd" >
<svg xmlns="http://www.w3.org/2000/svg">
<metadata>
Created by FontForge 20120731 at Fri Jul 28 15:48:07 2017
 By admin
</metadata>
<defs>
<font id="iconfont" horiz-adv-x="1024" >
  <font-face 
    font-family="iconfont"
    font-weight="500"
    font-stretch="normal"
    units-per-em="1024"
    panose-1="2 0 6 3 0 0 0 0 0 0"
    ascent="896"
    descent="-128"
    x-height="792"
    bbox="0 -212 1325 896"
    underline-thickness="0"
    underline-position="0"
    unicode-range="U+0078-E8E2"
  />
<missing-glyph 
 />
    <glyph glyph-name=".notdef" 
 />
    <glyph glyph-name=".notdef" 
 />
    <glyph glyph-name=".null" horiz-adv-x="0" 
 />
    <glyph glyph-name="nonmarkingreturn" horiz-adv-x="341" 
 />
    <glyph glyph-name="x" unicode="x" horiz-adv-x="1001" 
d="M281 543q-27 -1 -53 -1h-83q-18 0 -36.5 -6t-32.5 -18.5t-23 -32t-9 -45.5v-76h912v41q0 16 -0.5 30t-0.5 18q0 13 -5 29t-17 29.5t-31.5 22.5t-49.5 9h-133v-97h-438v97zM955 310v-52q0 -23 0.5 -52t0.5 -58t-10.5 -47.5t-26 -30t-33 -16t-31.5 -4.5q-14 -1 -29.5 -0.5
t-29.5 0.5h-32l-45 128h-439l-44 -128h-29h-34q-20 0 -45 1q-25 0 -41 9.5t-25.5 23t-13.5 29.5t-4 30v167h911zM163 247q-12 0 -21 -8.5t-9 -21.5t9 -21.5t21 -8.5q13 0 22 8.5t9 21.5t-9 21.5t-22 8.5zM316 123q-8 -26 -14 -48q-5 -19 -10.5 -37t-7.5 -25t-3 -15t1 -14.5
t9.5 -10.5t21.5 -4h37h67h81h80h64h36q23 0 34 12t2 38q-5 13 -9.5 30.5t-9.5 34.5q-5 19 -11 39h-368zM336 498v228q0 11 2.5 23t10 21.5t20.5 15.5t34 6h188q31 0 51.5 -14.5t20.5 -52.5v-227h-327z" />
    <glyph glyph-name="users" unicode="&#xe600;" horiz-adv-x="1000" 
d="M276 535q0 -16 11 -27.5t27 -11.5v0h1q6 -82 61.5 -146t129 -64t129.5 64t62 146v0v0q16 0 27 11.5t11 27.5q0 26 -22 37q11 36 11 75q0 96 -64 164t-154.5 68t-154.5 -68t-64 -164q0 -39 12 -75q-23 -11 -23 -37zM985 44q-137 132 -316 177q-5 2 -10 2h-10q-6 0 -10 -2
q-56 -30 -133.5 -30t-133.5 30q-4 2 -9 2h-8h-5q-184 -44 -323 -179q-6 -6 -6 -15v-73q0 -8 5.5 -14t14.5 -6h929q9 0 15 6t6 14v73q0 9 -6 15z" />
    <glyph glyph-name="bianji" unicode="&#xe619;" 
d="M324 153l42 -42l102 37l-107 107zM513.5 749q-91.5 0 -174.5 -35.5t-143.5 -96t-96 -143.5t-35.5 -174.5t35.5 -174.5t96 -143t143.5 -95.5t174.5 -35.5t174.5 35.5t143 95.5t95.5 143t35.5 174.5t-35.5 174.5t-95.5 143.5t-143 96t-174.5 35.5zM491 125v1q-3 -2 -5 -3
l-206 -75q-9 -3 -16 3q-7 7 -3 16l75 206q1 2 3 5h-1l186 186l37 -37l-146 -145q-3 -4 -3 -9t3.5 -8.5t8.5 -3.5t8 4l146 145l45 -45l-145 -145q-8 -8 0 -17q4 -3 9 -3t8 3l145 145v0l37 -37zM751 386l-58 -58l-64.5 64.5l-87.5 87.5l58 58q16 16 38 16t38 -16l76 -77
q16 -15 16 -37.5t-16 -37.5z" />
    <glyph glyph-name="key" unicode="&#xe66f;" 
d="M869 172l-48 51l-9 53l-46 11l-8 46l-46 11l-8 47l-50 9l-66 70q44 71 39 141v0q-2 31 -14.5 59.5t-34.5 51.5v0q-26 28 -64 40q-29 10 -62 10h-16q-105 -7 -194 -92q-53 -49 -81 -112q-27 -62 -23 -119q2 -30 12 -55q11 -27 31 -47v-1q54 -56 133 -56q7 0 14 1v0v0
q52 3 104 32l295 -313l142 5l15 142zM746 55l-306 325l-20 -12q-48 -29 -95 -32q-6 -1 -11 -1q-60 0 -100 42q-28 30 -31 75q-4 46 19.5 99t70.5 97q77 73 166 79h13q26 0 48 -7q27 -9 46 -29q33 -35 36 -83q4 -61 -39 -124l-13 -19l101 -106l34 -6l7 -46l47 -11l7 -46
l47 -11l6 -36l58 -62l-8 -76l-334 361l-10 -10l332 -358l-71 -3v0zM435 606q-9 9 -21 14t-25 5q-17 0 -35 -7q-17 -7 -32 -21q-16 -15 -25 -33q-9 -19 -9 -37q0 -12 4 -22q4 -11 11 -19q9 -10 21 -15q12 -4 26 -4q17 0 34 7q18 7 32 20q16 15 25 34q9 18 9 37q0 11 -4 22
q-3 10 -11 19zM429 534q-8 -17 -22 -30q-13 -12 -28 -18t-29 -6q-11 0 -20.5 4t-16.5 11q-5 6 -8 14.5t-3 17.5q0 15 7 31q8 16 22 29q13 12 29 18q14 6 29 6q11 0 20 -3.5t16 -10.5q6 -7 9 -15t3 -17q0 -16 -8 -31z" />
    <glyph glyph-name="key2" unicode="&#xe633;" 
d="M876 748q-83 83 -201 83t-201 -83q-65 -65 -79.5 -155t23.5 -169l-353 -353l6 -128l128 -6l141 141q-2 1 -4 3.5t-9 10t-12 14t-12 16.5t-9 17t-3.5 15.5t4.5 12.5q10 10 32 -1.5t40 -27.5l17 -16l-44 -44l134 134l-45 -45l-3.5 3.5t-9.5 10t-12 14.5t-11.5 17t-9 17
t-4 15.5t4.5 11.5q10 10 32.5 -1t39.5 -27l18 -16l78 78q79 -38 169 -23.5t155 79.5q83 83 83 201t-83 201zM295 33l-45 -45q-1 2 -3.5 4t-9 9.5t-12 14.5t-11.5 16.5t-9.5 17.5t-3.5 15.5t5 12.5q9 9 31.5 -2t40 -26.5t17.5 -16.5zM742 479.5q-28 -27.5 -67.5 -27.5
t-67 27.5t-27.5 67t27.5 67.5t67 28t67.5 -28t28 -67.5t-28 -67z" />
    <glyph glyph-name="baobiao" unicode="&#xe648;" 
d="M895 -81h-763v763q0 10 -4 17.5t-9 7.5h-19q-5 0 -9 -7.5t-4 -17.5v-795q0 -5 5 -9q4 -5 8 -5h795q11 0 18 4t7 10v18q0 6 -7 10t-18 4zM949 -16l-139 68l46 14l-272 311l-220 -207q-7 -6 -16 -5t-14 9l-160 456q-5 7 -3 15.5t9 12.5q5 4 11 4q11 0 18 -9l146 -437
l222 209q7 7 17 5t15 -11l280 -328l30 37zM186 -40q0 -9 6.5 -14.5t16 -5.5t16 6t6.5 14v449l-45 129v-578zM251 -40q0 -8 6.5 -14t16 -6t16 6t6.5 14v264l-45 129v-393zM345 147q-18 2 -28 17l-1 2l-1 3v0v-209q0 -9 6.5 -14.5t16 -5.5t16 5.5t6.5 14.5v188q-5 -2 -9 -2
q-3 0 -6 1zM380 -40q0 -8 6.5 -14t16 -6t16 5.5t6.5 14.5v241l-45 -42v-199zM444 -40q0 -8 6.5 -14t16 -6t16 6t6.5 14v302l-45 -42v-260zM509 -40q0 -9 6.5 -14.5t16 -5.5t16 6t6.5 14v363l-45 -42v-321zM573 341v-381q0 -9 6.5 -14.5t16 -5.5t16 5.5t6.5 14.5v350l-35 40z
M638 -40q0 -9 6.5 -14.5t16 -5.5t16 6t6.5 14v276l-45 52v-328zM702 -40q0 -8 6.5 -14t16 -6t16 6t6.5 14v202l-45 52v-254zM812 74v14l-45 52v-80l38 11zM767 53v-93q0 -9 6.5 -14.5t16 -5.5t16 5.5t6.5 14.5v71l-10 4zM831 -40q0 -9 6.5 -14.5t16 -5.5t16 5.5t6.5 14.5v39
l-45 22v-61z" />
    <glyph glyph-name="picker" unicode="&#xe610;" 
d="M317 623q16 0 27 11.5t12 28.5v38v0v1v37q0 17 -11 28q-18 19 -42.5 9.5t-24.5 -35.5v-39v-38q0 -17 11.5 -29t27.5 -12zM710 622.5q16 0.5 27.5 12t11.5 28.5v37v0v1v38q0 16 -11 27q-18 19 -42.5 10t-24.5 -36v-39v-38q0 -17 11.5 -29t27.5 -11.5zM540 334h103v-77
h-103v77zM697 439h103v-77h-103v77zM697 334h103v-77h-103v77zM383 229h103v-77h-103v77zM540 229h103v-77h-103v77zM697 229h104v-77h-104v77zM226 229h103v-77h-103v77zM226 334h103v-77h-103v77zM540 439h103v-77h-103v77zM383 334h103v-77h-103v77zM383 439h103v-77
h-103v77zM890 702h-97v-14q0 -35 -22.5 -59.5t-55.5 -27.5h-6q-4 0 -7 1q-33 3 -55 27.5t-22 59.5v13h-226v-14q-1 -37 -25 -62t-59 -25t-59.5 25.5t-24.5 62.5v6.5v6.5h-97q-7 0 -11.5 -4.5t-4.5 -11.5v-649q0 -6 4.5 -10.5t11.5 -4.5h756q7 0 11.5 4.5t4.5 10.5v649
q0 7 -4.5 11.5t-11.5 4.5zM860 73h-692v424h691v-378h1v-46z" />
    <glyph glyph-name="download" unicode="&#xe674;" 
d="M867 456q1 14 1 17q0 116 -82 198t-198 82q-83 0 -150.5 -44t-102.5 -116q-35 27 -79 27q-53 0 -91 -38t-38 -91q0 -20 6 -39q-42 -25 -66.5 -68t-24.5 -95q0 -77 55.5 -132.5t134.5 -56.5l90 5l-60 69q-41 49 -16 102q11 24 34.5 38t53.5 14h41v103q0 47 33.5 82.5
t79.5 35.5h39q46 0 78 -35.5t32 -82.5v-103h44q30 0 53.5 -14.5t35.5 -39.5q24 -51 -16 -99l-60 -70q98 -3 102 -3q77 0 131 53.5t54 130.5q0 57 -31.5 102.5t-82.5 67.5zM681 248h-86h-37v183q0 15 -8.5 27.5t-22.5 12.5h-39q-13 0 -24 -13t-11 -27v-183h-32h-87
q-13 0 -17 -7.5t5 -18.5l164 -196q9 -11 22 -11t22 11l163 196q9 11 5.5 18.5t-17.5 7.5z" />
    <glyph glyph-name="settingWhite" unicode="&#xe651;" 
d="M894 403q0 15 -8 25t-20 12q-6 1 -24.5 4t-33.5 5.5t-18 2.5q-10 2 -13 10q-1 2 -11 26q-4 11 4 23q5 7 43 59q6 8 5 21t-10 22q-8 9 -49 49q-6 5 -18 5.5t-20 -5.5l-63 -45q-1 0 -2.5 -1t-6.5 -2t-9 1l-29 12q-7 5 -9 18q-1 3 -12 72q-2 12 -12 19t-22 7h-18.5h-27.5
h-19q-10 0 -19.5 -8t-10.5 -18q-2 -10 -13 -74q0 -4 -1.5 -7t-3 -4.5l-2.5 -2.5l-2 -2h-1q-17 -7 -26 -11q-11 -4 -27 7q-10 6 -55 38q-13 8 -24.5 6.5t-19.5 -9.5l-44 -44q-10 -10 -9.5 -23.5t9.5 -25.5q10 -13 36 -51q11 -15 8 -24q-2 -5 -10 -24q-3 -7 -8 -10t-17 -5
q-8 -2 -34 -6.5t-34 -5.5q-12 -2 -19.5 -12.5t-7.5 -24.5v-56q0 -31 34 -37q20 -4 66 -11q14 -3 19 -14q8 -19 8 -20q3 -7 2.5 -12.5t-7.5 -15.5q-7 -11 -40 -56q-7 -12 -5.5 -24t9.5 -20l43 -43q10 -9 22.5 -10.5t24.5 7.5q14 9 58 41q11 7 25 2q4 -1 19 -8q11 -4 14 -20
q2 -10 13 -70q5 -29 35 -29h54q35 0 40 27q3 16 13 74q2 11 12 16q4 2 23 11q11 4 25 -5q5 -4 56 -40q24 -17 45 4q10 9 44 42q20 20 4 45q-6 9 -44 62q-7 10 -2 22l11 22q4 9 16 11q8 2 73 13q27 5 28 35v58zM861 344q0 -8 -8 -10q-1 0 -11 -2t-20.5 -3.5t-22.5 -4
t-18 -2.5q-25 -5 -34 -25q-3 -7 -9 -24q-9 -22 2 -37q2 -2 13 -18t20.5 -29t10.5 -15q6 -9 -1 -15q0 -1 -10.5 -11.5t-19.5 -19t-11 -11.5q-7 -7 -17 0q-1 1 -11.5 8t-23 15.5t-22.5 15.5q-20 15 -42 5q-19 -7 -20 -8q-24 -9 -30 -42q-1 -6 -3.5 -21.5t-4.5 -26.5t-2 -14
q-2 -10 -12 -10h-57q-10 0 -13 11q-3 12 -11 65q-4 29 -22 36q-22 9 -24 10q-26 10 -45 -4q-2 -2 -16.5 -12.5t-26.5 -18.5t-14 -10q-10 -6 -16 0l-1 1v0h-1v1l-1 1v0l-1 1l-1 1l-1 1l-1 1l-1 1h-1l-1 2l-1 1l-1 1l-1 1l-1 1l-1 1l-1 1l-2 2l-1 1l-1 1l-1 1l-2 2l-1 1l-1 1
l-2 2l-1 1l-2 1l-1 2l-1 1l-2 2l-1 1l-1 1l-2 2l-1 1l-1 1l-1 1q-8 8 0 18q35 51 36 51q18 25 8 47q-2 5 -3.5 8.5t-2 4.5t-1.5 4t-4 8q-8 20 -33 24q-67 12 -68 12q-10 2 -10 12v58q0 10 11 12l13.5 2t28 4.5t22.5 4.5q30 5 38 25l10 24q9 22 -7 44q-38 53 -39 55
q-7 9 1 16q1 2 11.5 12.5l19 19l10.5 10.5q8 7 16 0q46 -33 56 -40q21 -15 44 -5q16 7 23 10q21 8 25 35q11 65 11 68q2 9 11 9h16h29.5h15.5q8 0 10 -8l3 -18.5t6 -35.5t4 -22q1 -7 8.5 -16.5t13.5 -11.5q27 -12 28 -12q7 -3 17 -2t15 4q64 44 66 46q8 6 15 -2
q2 -1 12.5 -12t19.5 -20l10 -10q6 -6 1 -12q0 -1 -6 -9.5l-12 -17t-13 -18.5t-11 -15q-14 -20 -4 -43l8 -19q10 -25 29 -28q74 -12 75 -12q10 -2 10 -12l-0.5 -15.5t-0.5 -29t1 -15.5zM525 550q-73 0 -124.5 -51.5t-51.5 -124t51.5 -124t124.5 -51.5t124.5 51.5t51.5 124
t-51.5 124t-124.5 51.5zM525 229q-60 0 -102.5 42.5t-42.5 103t42.5 103t102.5 42.5t102.5 -42.5t42.5 -103t-42.5 -103t-102.5 -42.5z" />
    <glyph glyph-name="androidWhite" unicode="&#xe623;" 
d="M268 151q0 -16 11.5 -27.5t27.5 -11.5h55v-126q0 -20 14 -34.5t34.5 -14.5t35 14.5t14.5 34.5v126h105v-126q0 -20 14.5 -34.5t35 -14.5t34.5 14.5t14 34.5v126h59q16 0 27.5 11.5t11.5 27.5v360h-493v-360zM296 482h437v-331q0 -4 -3.5 -7.5t-7.5 -3.5h-87v-154
q0 -8 -6 -14.5t-14.5 -6.5t-14.5 6.5t-6 14.5v154h-163v-154q0 -8 -6 -14.5t-14.5 -6.5t-14.5 6.5t-6 14.5v154h-83q-4 0 -7.5 3.5t-3.5 7.5v331zM263 557h493q-6 53 -39.5 97.5t-85.5 70.5l61 83q8 12 -3 20.5t-20 -3.5l-63 -86l-1 -3q-45 17 -94 17q-50 0 -98 -18
q0 3 -1 4l-63 86q-9 12 -20.5 3.5t-2.5 -20.5l62 -84q-52 -26 -85.5 -70t-39.5 -97zM511 725q75 0 133 -39.5t77 -100.5h-423q19 61 78.5 100.5t134.5 39.5zM440.5 615q11.5 0 19.5 8t8 19.5t-8 19.5t-19.5 8t-19.5 -8t-8 -19.5t8 -19.5t19.5 -8zM578.5 615q11.5 0 19.5 8
t8 19.5t-8 19.5t-19.5 8t-19.5 -8t-8 -19.5t8 -19.5t19.5 -8zM192 511q-12 0 -20 -8.5t-8 -20.5v-227q0 -11 8 -19.5t20 -8.5t20 8.5t8 19.5v227q0 12 -8 20.5t-20 8.5zM832 511q-12 0 -20 -8.5t-8 -20.5v-227q0 -11 8 -19.5t20 -8.5t20 8.5t8 19.5v227q0 12 -8 20.5
t-20 8.5z" />
    <glyph glyph-name="icon24" unicode="&#xe628;" 
d="M845 21v435q0 70 -49 119t-118 49h-435q17 49 60 80t96 31h390q69 0 118 -49t49 -118v-390q0 -54 -31 -96.5t-80 -60.5zM789 401v-390q0 -69 -49 -118t-118 -49h-390q-69 0 -118 49t-49 118v390q0 69 49 118t118 49h390q69 0 118 -49t49 -118zM177 11q0 -23 16 -39.5
t39 -16.5h390q23 0 39.5 16.5t16.5 39.5v334h-501v-334zM232 512q-23 0 -39 -16.5t-16 -39.5t16 -39t39 -16t39.5 16t16.5 39t-16.5 39.5t-39.5 16.5z" />
    <glyph glyph-name="userinfo" unicode="&#xe6b2;" 
d="M322 590v0v0zM279.5 557q19.5 0 33.5 17t14 42v66q0 24 -14 41.5t-33.5 17.5t-33.5 -17.5t-14 -41.5v-66q0 -25 14 -42t33.5 -17zM901 620q-1 24 -13.5 36.5t-25.5 13.5h-12h-29v-93q0 -2 -0.5 -4.5t-2.5 -9.5t-6 -12.5t-12 -10t-19 -4.5h-4.5h-3.5h-61h-12q-17 0 -27 10
t-10 20l-1 10v94h-302v-94v-4.5t-2 -9t-5.5 -12t-11.5 -10t-20 -4.5h-11h-61h-8q-17 0 -27.5 10t-11.5 21l-1 10v93h-29h-5t-12 -2t-15.5 -7t-12.5 -15.5t-7 -25.5v-3v-520q0 -45 46 -53l8 -1h674q2 0 5.5 0.5t13 3.5t16.5 8t13 16t6 26v139.5v255v125.5q0 1 -1 3zM512 153
q0 -50 -151 -50q-153 0 -153 50v11q0 21 30 42t70 35q3 1 6 4t6.5 10.5t-1.5 18.5q-18 18 -29 44.5t-11 53.5q0 41 23 64t58 23t58.5 -23t23.5 -64q0 -56 -40 -98v0q-9 -28 7 -33q42 -14 72.5 -34.5t30.5 -42.5v-11zM780 172h-171q-15 0 -25.5 10.5t-10.5 25.5t10.5 26
t25.5 11h171q15 0 26 -11t11 -26t-11 -25.5t-26 -10.5zM780 317h-171q-15 0 -25.5 10.5t-10.5 26t10.5 26t25.5 10.5h171q15 0 26 -10.5t11 -26t-11 -26t-26 -10.5zM742.5 557q19.5 0 33.5 17t14 42v66q0 24 -14.5 41.5t-34.5 17.5t-33 -17.5t-13 -41.5v-66q0 -25 14 -42
t33.5 -17z" />
    <glyph glyph-name="dingdan" unicode="&#xe6bc;" 
d="M537.5 506q40.5 0 68.5 29.5t28 70.5q0 47 -35 77q3 -11 3 -20q0 -28 -19.5 -48t-46.5 -20t-46.5 20t-19.5 48q0 8 2 16q-31 -29 -31 -73q0 -41 28 -70.5t68.5 -29.5zM534.5 634q26.5 0 45.5 19.5t19 47t-19 47t-45.5 19.5t-45.5 -19.5t-19 -47t19 -47t45.5 -19.5zM79 38
l156 -63q-6 12 -21.5 116t-29 203t-12.5 98zM712 -167l10 153l-349 -36zM818 675l-170 -26q16 -30 16 -64q0 -54 -37 -92t-89.5 -38t-89.5 38t-37 92q0 14 2 28l-209 -31q4 -90 29.5 -246t44.5 -246.5t24 -111.5l651 114q-20 21 -54 168t-57.5 278t-23.5 137zM327 356
l277 41l9 -31l-277 -41zM387 122l-10 35l341 50l10 -35zM366 223l-13 35l439 60l13 -35z" />
    <glyph glyph-name="jilu" unicode="&#xe61a;" 
d="M934 470l-301 -301l-220 -82l83 219l301 301q23 23 55 23t55 -23l27 -27q23 -23 23 -55t-23 -55zM480 154l132 49l7 7l-82 82l-8 -7zM564 320l83 -83l205 206l-82 82zM907 553l-27 27q-12 12 -28 12t-27 -12l-28 -27l82 -83l28 28q12 11 12 27.5t-12 27.5zM200 67v39h191
l-15 -39h-176zM420 184h-220v38h235zM200 455h194v-38h-194v38zM394 300h-194v39h194v-39zM627 106v-39h-188l104 39h84zM530 675v-142q0 -16 11.5 -27.5t27.5 -11.5h60l-39 -39h-21q-32 0 -55 23t-23 55v175h-349q-16 0 -27.5 -11.5t-11.5 -27.5v-738q0 -16 11.5 -27
t27.5 -11h543q16 0 27.5 11t11.5 27v274l39 39v-313q0 -32 -22.5 -54.5t-55.5 -22.5h-543q-32 0 -55 22.5t-23 54.5v738q0 32 23 54.5t55 22.5h291h10h21h54l175 -188l-27 -27z" />
    <glyph glyph-name="sim" unicode="&#xe607;" 
d="M740 -66h-379q-149 149 -149 153v672q0 31 21 53t51 22h456q30 0 51 -22t21 -53v-750q0 -31 -21 -53t-51 -22v0zM523 284h115v142h-115v-142zM398 284h104v142h-104v-142zM263 336q0 -22 12 -37t29 -15h73v142h-114v-90zM377 734h-73q-17 0 -29 -15t-12 -36v-90h114v141z
M502 734h-104v-141h104v141zM523 734v-141h115v141h-115zM763 683q0 21 -12.5 36t-29.5 15h-63v-141h105v90zM763 567h-500v-116h395v-167h63q17 0 29.5 15t12.5 36v232z" />
    <glyph glyph-name="1" unicode="&#xe62b;" 
d="M653.5 371q-95.5 0 -163 -69t-67.5 -167t67.5 -167t163 -69t163 69t67.5 167t-67.5 167t-163 69zM654 -72q-84 0 -143 60.5t-59 146.5t59 146.5t143 60.5t143 -60.5t59 -146.5t-59 -146.5t-143 -60.5zM510 135h168v-44h-168v44zM594 223h-27v-19h111v38h-84v-19z
M980 -168v24h-20v19h-25v22h-19v20h-22v20h-42v-40h25v-24h18v-19h29v-24h17v-22h55v24h-16zM209 417h213v-43h-213v43zM209 551h213v-45h-213v45zM209 157h172v-44h-172v44zM209 287h213v-44h-213v44zM127 -47q-9 0 -15 6t-6 15v710q0 9 6 15.5t15 6.5h396v-222
q0 -27 19 -46.5t45 -19.5h204v-34q14 -7 31 -17v115h-27v19h-11v0h-7v19h-18v24h-18v22h-22v24h-20v21h-22v23h-19v19h-22v23h-24v22h-18v25h-23v20h-447q-26 0 -45 -19t-19 -46v-698q0 -27 19 -46t45 -19h353q-17 16 -32 37h-318v1zM568 657h24v-23h21v-23h20v-21h21v-24
h25v-19h24v-19h20v-26h20v-27h23v-19h-176q-9 0 -15.5 6t-6.5 15v180v0z" />
    <glyph glyph-name="ota" unicode="&#xe6c2;" 
d="M836 488q5 0 8.5 -3.5t3.5 -7.5v-417q0 -5 -3.5 -8.5t-8.5 -3.5h-648q-5 0 -8.5 3.5t-3.5 8.5v417q0 4 3.5 7.5t8.5 3.5h648zM512 755q-14 0 -24.5 -10.5t-10.5 -24.5q0 -5 2 -11l-256 -186h-35q-20 0 -33.5 -13.5t-13.5 -32.5v-417q0 -20 13.5 -33.5t33.5 -13.5h648
q20 0 33.5 13.5t13.5 33.5v417q0 19 -13.5 32.5t-33.5 13.5h-35l-256 186q2 6 2 11q0 14 -10.5 24.5t-24.5 10.5v0zM512 685q10 0 19 6l231 -168h-500l231 168q9 -6 19 -6v0zM825 94q0 -9 -7 -16t-16 -7h-580q-9 0 -16 7t-7 16v348q0 10 7 16.5t16 6.5h580q9 0 16 -6.5
t7 -16.5v-348z" />
    <glyph glyph-name="msnui-usb-bold" unicode="&#xe6f9;" 
d="M674 737q-18 18 -43.5 18t-42.5 -18l-184 -183l-39 39l-140 -140q-22 -23 -22 -55v-184v0l-44 -45q-18 -18 -18 -43t18 -43l52 -52q18 -18 43 -18t43 18l45 44v0h184q32 0 55 22l140 140l-39 39l183 184q18 18 18 43t-18 43zM735 514l15 -15q9 -9 9 -22t-9 -23l-15 -14
q-9 -10 -22 -10t-22 10l-15 14q-10 10 -10 23t10 22l15 15q9 9 22 9t22 -9zM627 622l15 -15q9 -9 9 -22t-9 -22l-15 -15q-9 -10 -22 -10t-23 10l-14 15q-10 9 -10 22t10 22l14 15q10 9 23 9t22 -9z" />
    <glyph glyph-name="msnui-bind-circle" unicode="&#xe70f;" 
d="M440 229l-28 -26q-18 -17 -43 -17t-43 17q-17 17 -17 41t17 41l101 98q56 54 89 22q10 -10 23.5 -10t23.5 10t10 23.5t-10 22.5q-37 36 -86.5 30t-96.5 -52l-101 -97q-37 -37 -37 -88t37 -87.5t90 -36.5t90 36l28 27q10 9 10 22.5t-10 23.5t-23.5 10t-23.5 -10v0z
M745 608q-39 38 -88 40t-86 -34l-34 -33q-10 -9 -10 -22.5t10 -23t24 -10t23 9.5l35 33q20 17 40.5 14t38 -20t17.5 -41.5t-17 -41.5l-108 -104q-49 -48 -82 -16q-10 10 -23.5 10t-23.5 -9.5t-10 -23.5t10 -23q34 -33 75 -33q52 0 102 49l107 104q38 36 38 87.5t-38 87.5v0z
M512 835q-92 0 -175.5 -35.5t-144 -96t-96 -144t-35.5 -175.5t35.5 -175.5t96 -144t144 -96t175.5 -35.5t175.5 35.5t144 96t96 144t35.5 175.5t-35.5 175.5t-96 144t-144 96t-175.5 35.5v0zM512 36q-95 0 -175 46.5t-126.5 126.5t-46.5 175t46.5 175t126.5 126.5t175 46.5
t175 -46.5t126.5 -126.5t46.5 -175t-46.5 -175t-126.5 -126.5t-175 -46.5v0zM512 36z" />
    <glyph glyph-name="lock" unicode="&#xe692;" 
d="M502 302h20q13 0 22 -9t9 -21v-144q0 -12 -9 -21t-22 -9h-20q-13 0 -22 9t-9 21v144q0 12 9 21t22 9zM839 404v-368q0 -17 -12 -29t-29 -12h-572q-17 0 -29 12t-12 29v368h654zM901 466h-778v-430q0 -43 30 -72.5t73 -29.5h572q43 0 73 29.5t30 72.5v430zM819 466h-62v61
q0 102 -73 174t-172 72q-100 0 -172.5 -73t-72.5 -173v-61h-62v61q0 82 41.5 153t112.5 112.5t153 41.5t152.5 -40t112.5 -111t42 -156v-61z" />
    <glyph glyph-name="logout" unicode="&#xe612;" 
d="M743 540q-6 7 -15.5 7t-16.5 -7t-7 -16.5t7 -16.5l83 -83h-396q-10 0 -16.5 -6.5t-6.5 -16t6.5 -16t16.5 -6.5h397l-84 -85q-7 -7 -7 -16.5t7 -16t16.5 -6.5t15.5 7l136 139zM581 108q0 -12 -8 -20t-20 -8h-334q-11 0 -19.5 8t-8.5 20l1 586q0 12 8 20t20 8h333
q12 0 20 -8t8 -20v-178h46v206q0 19 -13.5 32.5t-32.5 13.5h-390q-19 0 -32.5 -13.5t-13.5 -32.5v-642q0 -19 13.5 -32.5t32.5 -13.5h390q19 0 32.5 13.5t13.5 32.5v207h-46v-179z" />
    <glyph glyph-name="jiage" unicode="&#xe679;" 
d="M512 812q-138 0 -256 -69t-187 -187t-69 -256t69 -256t187 -187t256 -69t256 69t187 187t69 256t-69 256t-187 187t-256 69zM512 -148q-122 0 -225 60t-163 163t-60 225t60 225t163 163t225 60t225 -60t163 -163t60 -225t-60 -225t-163 -163t-225 -60zM546 257l30 52h128
q10 0 15.5 5.5t5.5 15t-5.5 15.5t-15.5 6h-102l93 154q7 9 4.5 20t-12.5 14q-10 6 -20.5 3.5t-13.5 -12.5l-132 -221h-5h-4l-128 226q-22 22 -43 8t-8 -34l89 -154h-102q-21 -7 -21 -25q0 -10 5.5 -15.5t15.5 -5.5h128l30 -52q0 -4 4 -4v-8h-162q-10 0 -15.5 -6t-5.5 -15.5
t5.5 -15.5t15.5 -6h158v-115q0 -14 9.5 -24t24.5 -10q14 0 24 9t10 25v115h158q10 0 15.5 6t5.5 15.5t-5.5 15.5t-15.5 6h-158v12v0z" />
    <glyph glyph-name="camera" unicode="&#xe6f5;" 
d="M521 491q-65 0 -111 -46t-46 -110.5t46 -110.5t111 -46t111 46t46 110.5t-46 110.5t-111 46zM855 627h-147l-58 74q-5 6 -13 6h-240q-8 0 -13 -6l-55 -74h-158q-26 0 -44 -18.5t-18 -43.5v-455q0 -26 18 -44t44 -18h684q25 0 43.5 18t18.5 44v455q0 25 -18.5 43.5
t-43.5 18.5zM521 144q-79 0 -135 56t-56 134.5t56 134.5t135 56t135 -56t56 -134.5t-56 -134.5t-135 -56zM782.5 483q-10.5 0 -17.5 7.5t-7 17.5t7 17.5t17.5 7.5t17.5 -7.5t7 -17.5t-7 -17.5t-17.5 -7.5z" />
    <glyph glyph-name="shape2" unicode="&#xe61b;" 
d="M512 -212q-44 0 -101.5 25t-114 69.5t-104 99.5t-77.5 121.5t-30 129.5v430l42 1q9 0 29.5 1.5t70.5 12t94 28.5t87 41t57.5 32.5t20.5 14.5l26 18l25 -18q7 -5 21.5 -14.5t57 -32.5t87.5 -41q44 -18 94 -28.5t70.5 -12t29.5 -1.5l42 -1v-430q0 -63 -30 -129.5
t-78 -121.5t-104 -99.5t-113.5 -69.5t-101.5 -25v0zM171 581v-348q0 -60 39.5 -126.5t94 -116.5t112.5 -83t95 -33t95 33t112.5 83t94 116.5t39.5 126.5v348q-97 10 -182 45q-86 35 -159 81q-72 -46 -159 -81q-85 -35 -182 -45v0zM638 326h-27h-37h-122h-39h-27
q-5 0 -8 -3.5t-3 -7.5v-180q0 -4 3 -7.5t8 -3.5h252q5 0 8 3.5t3 7.5v180q0 4 -3 7.5t-8 3.5zM452 379v0q0 25 18 42.5t43 17.5t43 -17.5t18 -42.5v0v-53h37v53v0q0 41 -29 70t-70 29t-70 -29t-29 -70v0v-53h39v53v0z" />
    <glyph glyph-name="add5" unicode="&#xe769;" 
d="M512 755q-101 0 -186.5 -49.5t-135 -135t-49.5 -186.5t49.5 -186.5t135 -135t186.5 -49.5t186.5 49.5t135 135t49.5 186.5t-49.5 186.5t-135 135t-186.5 49.5zM512 106q-115 0 -196.5 81.5t-81.5 196.5t81.5 196.5t196.5 81.5t196.5 -81.5t81.5 -196.5t-81.5 -196.5
t-196.5 -81.5zM651 430h-93v93q0 19 -13.5 32.5t-32.5 13.5t-32.5 -13.5t-13.5 -32.5v-93h-93q-19 0 -32.5 -13.5t-13.5 -32.5t13.5 -32.5t32.5 -13.5h93v-93q0 -19 13.5 -32.5t32.5 -13.5t32.5 13.5t13.5 32.5v93h93q19 0 32.5 13.5t13.5 32.5t-13.5 32.5t-32.5 13.5z" />
    <glyph glyph-name="throw" unicode="&#xe6e0;" 
d="M657 346v49h224v-49h-224zM609 557l144 100l29 -39l-144 -101zM142 274v218h213l210 210v-635l-210 207h-213zM782 123l-29 -40l-144 100l29 40z" />
    <glyph glyph-name="user" unicode="&#xe608;" 
d="M860 111q-11 8 -29.5 18.5t-73.5 32.5t-110 34q61 78 87 188q7 28 8 65.5t-4.5 78.5t-21.5 83t-40 73q-62 79 -164 79t-164 -79q-24 -31 -40 -73t-21.5 -83t-4.5 -78.5t8 -65.5q26 -110 87 -188q-55 -12 -110 -34t-73.5 -32.5t-29.5 -18.5q-13 -8 -18 -22.5t-0.5 -29
t16.5 -23.5t27 -9h646q15 0 27 9t16.5 23.5t-0.5 29t-18 22.5zM610 225l-7 -10q-41 -47 -91 -47t-91 47l-7 10q-49 61 -71 137.5t-12 153.5q5 38 18.5 72.5t35 64t54.5 47t73 17.5t73 -17.5t54.5 -47t35 -64t18.5 -72.5q10 -77 -12 -153.5t-71 -137.5zM189 73
q10 7 27.5 16.5t68 30t102.5 31.5l57 13q34 -22 68 -22t68 22l57 -13q51 -11 101.5 -31t68 -30t28.5 -17h-646z" />
    <glyph glyph-name="picture" unicode="&#xe6a0;" 
d="M870 704h-716q-16 0 -27 -11t-11 -26v-566q0 -15 11 -26t27 -11h716q16 0 27 11t11 26v566q0 15 -11 26t-27 11zM832 266l-139 139q-13 13 -31 13t-30 -13l-164 -163l-69 70q-12 12 -28.5 12t-28.5 -12l-148 -148q-2 6 -2 13v414q0 16 11 27t26 11h565q16 0 27 -11
t11 -27v-325zM361 553q-31 0 -53 -22t-22 -53t22 -53t53 -22t53 22t22 53t-22 53t-53 22z" />
    <glyph glyph-name="node" unicode="&#xe618;" 
d="M557 560h187v-188h-187v188zM557 325h187v-188h-187v188zM303 325h187v-188h-187v188zM251 378h239v240h-239v-240zM289 580h163v-165h-163v165zM824 780h-625q-34 0 -57.5 -24.5t-23.5 -58.5v-626q0 -34 23.5 -58.5t57.5 -24.5h625q34 0 58 24.5t24 58.5v626
q0 34 -24 58.5t-58 24.5zM857 71q0 -14 -9.5 -23.5t-23.5 -9.5h-625q-13 0 -22.5 9.5t-9.5 23.5v626q0 14 9.5 23.5t22.5 9.5h625q14 0 23.5 -9.5t9.5 -23.5v-626z" />
    <glyph glyph-name="android" unicode="&#xe61f;" 
d="M269 548h485v-11v-362q0 -62 -63 -62h-30v-127q0 -20 -14.5 -34t-33.5 -15q-22 -1 -38 12t-16 33q-1 11 -1 130h-93v-51v-76q-1 -18 -13.5 -31.5t-30.5 -16.5q-19 -2 -35 8t-22 28q-2 8 -2 16q-1 41 -1 108l2 16h-36q-26 0 -42 15.5t-16 42.5v367v10v0zM754 584h-485
q6 112 123 173q-18 27 -21 32q-2 3 -7.5 11t-8.5 12q-8 13 -1 17q7 5 14 -6l2 -2q6 -9 27 -40q8 -13 12 -14t18 3q92 26 181 -4l7 -2q7 11 20.5 30.5t16.5 24.5q4 6 4 7q6 8 14 3q6 -5 1 -13q-7 -10 -32 -48q-1 -2 -2.5 -3.5t-3 -4t-2.5 -3.5q117 -61 123 -173v0zM641 678
q0 11 -7.5 18.5t-18 7.5t-18 -7.5t-7.5 -18t7 -18t18 -7.5t18.5 7t7.5 18v0zM433 679q0 10 -7.5 17.5t-18 7.5t-18 -8t-7.5 -18q0 -11 7.5 -18.5t18.5 -7t18.5 8t6.5 18.5v0zM892 385v-108q0 -24 -14.5 -39t-37 -15t-37 15.5t-14.5 38.5v220q0 20 13 34.5t33 16.5t36 -9.5
t20 -31.5q1 -5 1 -15v-107v0zM234 385v-113q0 -17 -11 -30.5t-28 -17.5q-16 -4 -32 2.5t-24 20.5t-8 27q-1 92 0 223q0 21 15 36t36.5 15t36.5 -14.5t15 -36.5v-112v0v0zM234 385z" />
    <glyph glyph-name="qiyong" unicode="&#xe60c;" 
d="M706 541q-12 9 -27 6.5t-24 -14.5l-196 -267l-92 114q-9 12 -24 13.5t-26.5 -8t-13 -24.5t7.5 -26l121 -151q11 -13 28 -13h1q18 0 28 15l225 305q8 12 6 26.5t-14 23.5zM512 821q-91 0 -174.5 -36t-143.5 -96t-95.5 -143t-35.5 -174.5t35.5 -174.5t95.5 -143
t143.5 -95.5t174.5 -35.5t174 35.5t143 95.5t96 143t36 174.5t-36 174.5t-96 143t-143 96t-174 36zM512 10q-98 0 -181.5 48.5t-132 132t-48.5 181.5t48.5 181t132 131.5t181.5 48.5t181 -48.5t131.5 -131.5t48.5 -181t-48.5 -181.5t-131.5 -132t-181 -48.5z" />
    <glyph glyph-name="footprint" unicode="&#xe614;" 
d="M878 449v1v0v1v0h-1v1v0v0l-1 1v0v1v0v0l-1 1v0v0v1h-1v0v1v0v1h-1v0v1h-1v1v0v1h-1v0v1v0l-1 1v0v1v0h-1v1v0l-1 1v0v0v1v0h-1v1v0v1h-1v0v1v0l-2 3q-15 23 -32 44q-1 2 -3 4l-2 2v0q-24 29 -50 52q-4 4 -9 4h-128q-14 0 -24 -10v0v0v0q-10 -10 -10 -24v-188q0 -3 -3 -5
v0q-2 -2 -5 -2h-425q-13 0 -22 -9v0q-9 -10 -9 -22v-30q0 -13 9 -22v0q9 -10 22 -10h84q-7 -15 -7 -33q0 -34 24.5 -58t58.5 -24t58 24t24 58q0 18 -7 33h245q-7 -15 -7 -33q0 -34 24.5 -58t58.5 -24t58.5 24t24.5 58q0 18 -7 33h41q13 0 23 10q1 0 1 1q10 10 10 24v155z
M373 184.5q-17 -16.5 -40.5 -16.5t-40 16.5t-16.5 40t16.5 40t40 16.5t40.5 -16.5t17 -40t-17 -40zM769.5 184.5q-16.5 -16.5 -40.5 -16.5t-40.5 16.5t-16.5 40t17 40t40.5 16.5t40 -16.5t16.5 -40t-16.5 -40zM854 292q0 -4 -2 -6l-1 -1q-2 -2 -5 -2h-59q-24 24 -58 24
t-58 -24h-280q-24 24 -58 24t-58 -24h-102q-2 0 -4 2v0q-1 1 -1 4v30q0 2 1 3v0q2 2 4 2h425q14 0 24 10v0q9 9 9 23v188q0 3 3 6v0q2 2 6 2h123q16 -14 30 -30h-76q-15 0 -26 -11v0q-11 -10 -11 -26v-50q0 -15 11 -26v0q11 -10 26 -10h137v-108zM854 425h-137
q-4 0 -7.5 3.5t-3.5 7.5v50q0 5 3.5 8t7.5 3h98q15 -18 29 -40v0l1 -2v0l1 -2v0v-1h1v-1l2 -2v0v-1v-1h1v0v0l1 -1v0v-1l1 -1v0v0v0v-1v0v0l1 -1v0v0v-1h1v0v-1v0v-15zM575 627q-15 15 -36 15h-346q-21 0 -36 -15v0q-15 -15 -15 -36v-182q0 -21 15 -36t36 -15h346
q21 0 36 15v0q15 15 15 36v182q0 21 -15 36zM564 409q0 -10 -7 -18v0q-7 -7 -18 -7h-346q-10 0 -17.5 7.5t-7.5 17.5v182q0 11 7.5 18.5t17.5 7.5h346q11 0 18 -7.5t7 -18.5v-182z" />
    <glyph glyph-name="echartsLine" unicode="&#xe601;" 
d="M857 780h-691q-21 0 -35 -14.5t-14 -35.5v-691q0 -21 14 -35.5t35 -14.5h691q21 0 35.5 14.5t14.5 35.5v691q0 21 -14.5 35.5t-35.5 14.5zM857 88q0 -20 -14.5 -34.5t-34.5 -14.5h-593q-20 0 -34.5 14.5t-14.5 34.5v593q0 20 14.5 34.5t34.5 14.5h593q20 0 34.5 -14.5
t14.5 -34.5v-593zM798 528q-19 11 -29 -2l-87 -204l-122 235q-8 19 -25 19q-17 -3 -21 -23l-83 -235l-71 99q-1 1 -3.5 4.5t-4.5 5.5t-5.5 4t-8.5 2q-12 -5 -13 -7q-6 -5 -7 -11l-97 -182q-7 -8 -7 -19t6.5 -18.5t16 -7.5t15.5 8l89 167l71 -99q0 -1 2 -4t3 -4l3 -3t3.5 -3
t3.5 -2.5t5 -1.5h6q7 1 12 6t6 8.5t4 12.5l79 226l121 -231q9 -18 24 -19q9 0 13.5 5.5t10.5 16.5l92 219q11 30 -2 38z" />
    <glyph glyph-name="crown" unicode="&#xe65b;" horiz-adv-x="1273" 
d="M294 10h648l129 505l-224 -238l-165 419l-180 -440l-318 253zM138 534v0q0 -15 10.5 -25.5t25 -10.5t25 10.5t10.5 25.5v0v0q0 15 -10.5 25.5t-25 10.5t-25 -10.5t-10.5 -25.5v0zM1049 534v0q0 -15 10.5 -25.5t25.5 -10.5t25.5 10.5t10.5 25.5v0v0q0 15 -10.5 25.5
t-25.5 10.5t-25.5 -10.5t-10.5 -25.5v0zM612 731.5q0 -28.5 20 -48.5t49 -20t49 20t20 48.5t-20 49t-49 20.5t-49 -20.5t-20 -49z" />
    <glyph glyph-name="wifi" unicode="&#xe66d;" horiz-adv-x="1265" 
d="M627 576q-105 0 -201.5 -41.5t-168.5 -117.5q-10 -10 -9.5 -24t10.5 -24q10 -9 23 -9q15 0 25 10q63 67 146 102.5t175 35.5q91 0 173.5 -35t146.5 -102q9 -10 23.5 -10t24.5 9.5t10.5 23.5t-9.5 24q-73 77 -168.5 117.5t-200.5 40.5zM627 380q-64 0 -123 -25.5
t-103 -72.5q-10 -10 -9.5 -24t11.5 -24q9 -9 23 -9t24 11q72 76 177 76q104 0 176 -76q10 -10 25 -10q13 0 23 9q10 10 10.5 24t-9.5 24q-43 46 -102 71.5t-123 25.5zM1105 577q-95 98 -218.5 150.5t-259.5 52.5q-137 0 -261 -53t-219 -151q-9 -10 -9 -24t10 -24t24 -10
t24 11q86 88 197 135.5t234 47.5q122 0 233 -47.5t196 -135.5q10 -10 25 -10q13 0 23 9q10 10 10.5 24t-9.5 25zM553 63v0q0 -31 22 -53t52.5 -22t52 22t21.5 53v0v0q0 30 -21.5 52t-52 22t-52.5 -22t-22 -52v0z" />
    <glyph glyph-name="advert" unicode="&#xe672;" horiz-adv-x="1098" 
d="M417 621h-1q-3 -14 -5 -22l-47 -129h104l-47 129q-2 7 -4 22zM689 625h-47v-239h45q59 0 92.5 32t33.5 90t-34.5 87.5t-89.5 29.5zM1032 864h-971q-12 0 -20.5 -8.5t-8.5 -20.5v-712q0 -12 8.5 -21t20.5 -9h453v-146h-241v-43h586v43h-250v146h423q12 0 20.5 9t8.5 21
v712q0 12 -8.5 20.5t-20.5 8.5zM513 350l-32 85h-130l-29 -85h-45l119 311h42l119 -311h-44zM808 393.5q-47 -43.5 -121 -43.5h-85v311h89q70 0 117 -41t47 -111q0 -72 -47 -115.5z" />
    <glyph glyph-name="key1" unicode="&#xe634;" 
d="M945 182v0q-16 16 -38 16v0h-14v14q0 23 -16.5 39.5t-39.5 16.5h-13v14q0 24 -17 38l-86 86q24 85 2 172t-86 151q-47 47 -107.5 72t-125.5 25q-136 0 -233 -97q-46 -47 -71.5 -107t-25.5 -125.5t25.5 -126t72 -107t107 -71.5t125.5 -25q47 0 89 12l224 -224
q17 -17 39 -17h2l143 8q21 2 36.5 17t16.5 36l8 143q0 23 -17 40v0zM900 0l-143 -8l-248 248q-50 -21 -104 -21q-113 0 -193 81q-80 79 -80 193t80 194q80 81 193.5 81t193.5 -81q60 -59 75.5 -141.5t-15.5 -155.5l109 -110v-69h69v-69h70l-7 -142v0zM324 475q41 0 70 29.5
t29 71t-29 70.5t-70.5 29t-70.5 -29t-29 -70.5t29 -71.5q31 -29 71 -29v0zM279 621q18 18 44.5 18t44.5 -18t18 -44.5t-18 -44.5t-44.5 -18t-44.5 18t-18 44t18 45v0zM577 349q57 66 53.5 155.5t-65.5 150.5q-50 50 -118 63q-18 2 -22 -16q-3 -17 15 -22q56 -10 98 -52
q55 -55 55 -133.5t-55 -134.5q-55 -55 -134 -55t-134 55q-40 40 -53 99q-1 7 -7.5 11.5t-14.5 3.5q-7 -1 -11.5 -7.5t-3.5 -14.5q12 -66 62 -118q66 -66 159 -66q82 0 147 54l253 -254q6 -5 13 -5q9 0 12 5q6 6 6 13.5t-6 13.5l-249 254v0z" />
    <glyph glyph-name="dangandiaochu" unicode="&#xe60d;" 
d="M939 351q-6 0 -10 -4t-4 -10v-364h-831v461h424l50 -50q4 -5 11 -5h291v-365q0 -5 4 -9.5t9.5 -4.5t9.5 4.5t4 9.5v379q0 5 -4 9t-10 4h-299l-51 52q-4 4 -10 4v0h-443q-6 0 -10 -4t-4 -10v-489q0 -6 4 -10t10 -4h859q6 0 10 4t4 10v378q0 6 -4 10t-10 4zM412 668
q-14 0 -23.5 -10t-9.5 -24t9.5 -24t23.5 -10t24 10t10 24t-10 24t-24 10zM412 628q-6 0 -6 6t6 6t6 -6t-6 -6zM126 503v112l238 -119v-22h28v9l21 -10l20 8v-7h28v20l247 122v-164q0 -8 7 -11t14 0t7 11v371h-638v-320q0 -10 7 -14t14 0t7 14v0zM433 512l-19 -9l-22 10v50
q11 -3 20.5 -3t20.5 3v-51zM412 588q-19 0 -32 13.5t-13 32.5t13 32.5t32 13.5t32.5 -13.5t13.5 -32.5t-13.5 -32.5t-32.5 -13.5zM126 795h582v-149l-247 -121v54q25 22 25 55q0 30 -21.5 51.5t-52 21.5t-52 -21.5t-21.5 -51.5q0 -33 25 -55v-53l-238 120v149zM953 699h-115
q-6 0 -10 -4t-4 -9.5t4 -9.5t10 -4h80l-115 -115q-10 -11 0.5 -21.5t20.5 0.5l115 115v-86q0 -5 4 -9t10 -4t10 4t4 9v121q0 5 -4 9t-10 4z" />
    <glyph glyph-name="channel" unicode="&#xe7a5;" 
d="M161 777h28v-758h674v-28h-702v786zM414 440v-365h-169v197zM638 412v-337h-168v365l84 -112zM863 581v-506h-168v365zM273 384l-28 28l197 197l112 -113l225 197l-56 56h140v-140l-56 56l-253 -225l-112 113z" />
    <glyph glyph-name="loop" unicode="&#xe83e;" 
d="M879 440v-24q-1 -130 -81 -230q-62 -78 -156 -114q-5 -2 -8 -7q-32 -66 -104 -79q-41 -6 -79.5 11.5t-60.5 53.5q-23 38 -20 82t31 78q48 58 121 50q71 -7 108 -71q1 -2 2 -2l1 -1q27 17 28 18q70 49 97 130q10 30 11 61q1 6 2 7.5t7 3.5q3 1 28 9t38 13q1 0 35 11z
M317 103q-36 26 -38 28q-51 41 -85 98q-30 50 -42 107q-15 70 -4 139q2 13 4 22q1 4 -2 7q-26 30 -33 68q-10 52 17 97t77 61q75 23 135 -30q39 -34 45 -89q5 -42 -16 -80t-59 -57q-27 -14 -55 -15h-4l-2 -1q-2 -21 -2 -22q-6 -76 28 -140q23 -44 59 -75q5 -4 3 -10
q-4 -18 -25 -105q-1 0 -1 -3v0zM643 639q-23 14 -49 23q-52 17 -108 12q-28 -3 -55 -12q-5 -1 -8 3q-10 14 -58 84l-2 4l17 7q52 19 104 23q127 9 232 -62q5 -3 11 -1q45 15 89.5 0.5t70.5 -53.5q27 -40 23.5 -88t-35.5 -83q-30 -33 -73 -42.5t-83 7.5q-67 29 -83 101
q-7 36 5 72z" />
    <glyph glyph-name="weibiaoti1" unicode="&#xe620;" 
d="M898 448q3 22 -17 44q-35 38 -114 121q-20 112 -31 164q-3 19 -17 31t-32 12q-12 0 -25 -5q-57 -27 -152 -73q-119 14 -170 19q-25 2 -42 -17q-16 -17 -14 -41q7 -65 20 -168q-52 -110 -72 -154q-12 -26 -2 -47q11 -20 34 -25q46 -9 170 -30q83 -79 124 -115
q18 -17 36 -17v0q26 0 43 29q30 54 83 151q94 52 147 82q27 16 31 39zM849 441q-53 -31 -151 -84q-5 -3 -8 -8q-41 -78 -85 -155q-6 -10 -10.5 -10t-12.5 6q-12 12 -30 28.5t-34 31.5t-30.5 28.5t-23.5 22l-9 8.5q-4 4 -9 5q-69 10 -175 31q-6 1 -8 5q-3 5 2 16l17.5 37.5
t20 42.5t18 38t13.5 29l5 11q3 5 2 10q-12 91 -21 173q0 7 5 13q4 4 11 4v0q100 -9 175 -19q5 -1 10 1l11 5.5t28.5 14t37.5 18t41.5 20t37.5 18.5q6 2 10 2q11 0 14 -14q17 -88 31 -169q1 -5 5 -9q42 -42 117 -125q8 -9 8 -14q-1 -5 -13 -12zM947 124l-145 145
q-6 5 -13.5 5t-12.5 -5t-5 -12.5t5 -13.5l146 -145q5 -5 12.5 -5t13 5t5.5 12.5t-6 13.5zM380 217q0 -10 -6.5 -16.5t-16.5 -6.5h-275q-10 0 -16.5 6.5t-6.5 16.5v12q0 10 6.5 16.5t16.5 6.5h275q10 0 16.5 -6.5t6.5 -16.5v-12zM380 100q0 -10 -6.5 -16.5t-16.5 -6.5h-275
q-10 0 -16.5 6.5t-6.5 16.5v12q0 10 6.5 16.5t16.5 6.5h275q10 0 16.5 -6.5t6.5 -16.5v-12zM380 -17q0 -10 -6.5 -16.5t-16.5 -6.5h-275q-10 0 -16.5 6.5t-6.5 16.5v12q0 10 6.5 16.5t16.5 6.5h275q10 0 16.5 -6.5t6.5 -16.5v-12z" />
    <glyph glyph-name="shield" unicode="&#xe6a2;" 
d="M512 834q82 -64 169.5 -96t214.5 -32v-332q0 -58 -35 -134.5t-88.5 -143t-124.5 -113t-136 -46.5t-136 46.5t-124.5 113t-88.5 143t-35 134.5v332q126 0 214 32t170 96v0zM512 759q-68 -53 -141.5 -80t-178.5 -27v-276q0 -49 29 -112.5t74 -119t104 -94t113 -38.5
t113 38.5t103.5 94t74 119t29.5 112.5v276q-105 0 -178.5 27t-141.5 80v0zM737 518l-24 24q-5 5 -12.5 4t-13.5 -7l-229 -230l-122 116q-6 6 -13.5 7t-12.5 -4l-24 -25q-5 -5 -3.5 -12.5t7.5 -13.5l153 -145q4 -5 10 -6q11 -5 21 6l260 260q6 6 7 13.5t-4 12.5z" />
    <glyph glyph-name="question" unicode="&#xe66e;" 
d="M511 773q-105 0 -194.5 -52t-141.5 -141.5t-52 -195t52 -195t141.5 -141.5t195 -52t195 52t141.5 141.5t52 195t-52 195t-141.5 141.5t-195.5 52v0v0zM509 113q-24 0 -41 16.5t-17 39.5t17 39.5t40.5 16.5t40.5 -16.5t17 -39.5t-17 -39.5t-40 -16.5v0v0zM663 431
q-17 -27 -72 -72q-29 -24 -35.5 -38.5t-6.5 -51.5h-81q0 5 -0.5 10t-0.5 8v4q0 39 13.5 64.5t52.5 57.5q39 33 47 42q12 16 12 35q0 26 -21 44.5t-57 18.5q-34 0 -57 -19q-11 -9 -20 -27t-12 -32q-1 -9 -22 -13t-41 1.5t-19 21.5q1 55 49 97q45 40 118 40q78 0 123.5 -40.5
t45.5 -94.5q0 -29 -16 -56v0v0zM663 431z" />
    <glyph glyph-name="setting" unicode="&#xe669;" 
d="M898 281q1 -10 -1.5 -24t-8 -28.5t-14 -26t-18.5 -16.5t-17.5 -5t-16.5 3q-8 2 -20.5 4.5t-25.5 1t-26 -5.5t-22 -14q-20 -21 -23 -48q-3 -26 7 -50q9 -17 -2 -34q-5 -6 -16 -13q-10 -7 -23.5 -13t-27.5 -9.5t-25 -3.5q-7 0 -13.5 6t-9.5 13h-1q-9 25 -31 44t-51 19
q-28 0 -51 -19t-32 -44q-4 -9 -12.5 -14t-18.5 -5q-12 0 -26 4q-15 5 -29 11q-15 6 -26.5 14.5t-17.5 16.5q-4 6 -4.5 14t6.5 22q9 19 7 43.5t-21 45.5q-12 12 -28.5 16t-31.5 3q-18 -1 -36 -7q-12 -3 -23 2q-10 3 -17.5 15t-13.5 27q-7 14 -10 29.5t-2 25.5q3 18 17 23
q25 11 45 33.5t20 50.5q0 30 -20 51.5t-45 31.5q-7 2 -12 11.5t-5 19.5q0 11 3 24.5t9 25.5q5 12 12 23q7 10 15 15q7 5 13 4t14 -4q25 -9 52 -5.5t48 23.5q10 10 14.5 24.5t5.5 28.5t0 26t-2 17q-2 5 -3 11.5t1 11.5q5 11 18 20t28 15t29 9q14 2 23 2q11 0 17 -7t9 -14
q9 -23 29.5 -40t49.5 -17t51.5 16.5t31.5 41.5q3 6 10 13t15 7q11 0 25 -3t27 -9t24.5 -15t17.5 -20q5 -7 3 -14.5t-3 -11.5q-11 -24 -7 -50.5t24 -46.5t49 -22t54 10q7 4 16.5 3t16.5 -8q12 -11 21.5 -35t12.5 -48q2 -14 -4 -22t-13 -10q-26 -9 -44 -32t-18 -52t15 -50
t40 -30q6 -3 10 -7q10 -7 13 -19v0v0zM511 201q39 0 73 14.5t59.5 40t39.5 59.5q15 34 15 72.5t-14.5 72.5t-40 59.5t-59.5 40t-73 14.5t-72.5 -14.5t-59 -40t-40 -59.5t-14.5 -72.5t14.5 -72.5t40 -59.5t59.5 -40t72 -14.5v0z" />
    <glyph glyph-name="detail" unicode="&#xe660;" 
d="M995 -32l-276 276q72 98 72 220q0 102 -50 188t-136 136t-187.5 50t-187.5 -50t-136 -136t-50 -187.5t50 -187.5t136 -136t188 -50q144 0 251 97l273 -273q6 -6 14.5 -6t14.5 6l24 23q6 6 6 15t-6 15v0v0v0zM418 156q-128 0 -218 90.5t-90 218t90 217.5t217.5 90t218 -90
t90.5 -217.5t-90.5 -218t-217.5 -90.5v0v0v0zM589 495h-137v137q0 14 -9.5 23.5t-23 9.5t-23.5 -9.5t-10 -23.5v-137h-136q-14 0 -23.5 -9.5t-9.5 -23t9.5 -23.5t23.5 -10h136v-136q0 -14 10 -23.5t23.5 -9.5t23 9.5t9.5 23.5v136h137q14 0 23.5 10t9.5 23.5t-9.5 23
t-23.5 9.5z" />
    <glyph glyph-name="dialogue" unicode="&#xe609;" 
d="M130 619v-325q0 -48 33.5 -81.5t80.5 -33.5h172l6 -144l168 144h193q47 0 81 33.5t34 81.5v325q0 47 -34 80.5t-81 33.5h-539q-47 0 -80.5 -33.5t-33.5 -80.5zM623 438.5q0 22.5 16 38t38.5 15.5t38.5 -15.5t16 -38t-16 -38.5t-38.5 -16t-38.5 16t-16 38.5zM458 438.5
q0 22.5 15.5 38t38.5 15.5t38.5 -15.5t15.5 -38t-15.5 -38.5t-38.5 -16t-38.5 16t-15.5 38.5zM295 438.5q0 22.5 16 38t38.5 15.5t38.5 -15.5t16 -38t-16 -38.5t-38.5 -16t-38.5 16t-16 38.5z" />
    <glyph glyph-name="overview" unicode="&#xe68a;" 
d="M296 289q0 12 8.5 20.5t20.5 8.5h21q12 0 21 -8.5t9 -20.5v-130h48v130q0 32 -22.5 54.5t-54.5 22.5h-22q-32 0 -54.5 -22.5t-22.5 -54.5v-130h48v130zM286 526l154 86l-27 -88l41 23l34 110l-112 29l-41 -23l89 -23l-154 -87zM536 159v241q0 13 8.5 21.5t21.5 8.5h20
q13 0 21.5 -8.5t8.5 -21.5v-241h48v241q0 32 -22.5 55t-54.5 23h-22q-32 0 -54.5 -23t-22.5 -55v-241h48zM827 669h-21q-32 0 -55 -22.5t-23 -54.5v-433h48v432q0 13 9 21.5t21 8.5h21q12 0 21 -8.5t9 -21.5v-432h48v433q0 32 -23 54.5t-55 22.5zM183 685h-48v-605h770v47
h-722v558z" />
    <glyph glyph-name="open" unicode="&#xe62a;" 
d="M602 828v-62q128 -29 213 -135.5t85 -240.5q0 -105 -52 -194.5t-141.5 -141.5t-194.5 -52t-194.5 52t-141.5 141.5t-52 194.5q0 135 83.5 241t214.5 135v62q-157 -34 -258.5 -157.5t-101.5 -286.5q0 -122 60.5 -225.5t164 -164t225.5 -60.5t225.5 60.5t164 164
t60.5 225.5q0 163 -101.5 286.5t-258.5 157.5v0zM484 834h62v-450h-62v450v0z" />
    <glyph glyph-name="echarts2" unicode="&#xe602;" 
d="M812 121h-599q-36 0 -62 25.5t-26 62.5v469q0 36 26 62t62 26h599q36 0 62 -26t26 -62v-469q0 -37 -26 -62.5t-62 -25.5zM213 733q-23 0 -39.5 -16t-16.5 -39v-469q0 -23 16.5 -39.5t39.5 -16.5h599q23 0 39.5 16.5t16.5 39.5v469q0 23 -16.5 39t-39.5 16h-599zM698 2
h-372q-12 0 -15 12.5t8 18.5q23 12 38.5 26t21 25.5t7 23t1 16t-1.5 7.5q-3 8 1.5 15t13.5 7h223q7 0 12 -5.5t4 -13.5q-3 -18 3 -35.5t15 -28t21.5 -20.5t18 -13t8.5 -4q12 -5 9 -18t-16 -13v0zM379 35h268l-2 2q-39 37 -40 84h-186q1 -15 -3 -29q-6 -24 -24 -45
q-6 -6 -13 -12v0zM400 352l-57 66l-54 -62l-19 16l74 85l56 -67l112 125l56 -68l150 154l18 -17l-169 -174l-56 66zM375 315v-72h-62v72h62zM400 340h-112v-122h112v122v0zM543 360v-117h-62v117h62zM569 385h-113v-167h113v167zM718 427v-184h-68v184h68zM744 452h-119
v-234h119v234v0zM714 525v53h-54l-1 25l80 1v-79h-25zM802 634v-388h-580v388h580zM834 666h-644v-453h644v453z" />
    <glyph glyph-name="erp" unicode="&#xe6ae;" 
d="M759 374.5q-6 2.5 -27 2.5h-31l-13 -61h13q35 0 46.5 4.5t18 14t6.5 20.5q0 8 -3.5 12.5t-9.5 7zM562 373q-6 3 -25 3h-48l-12 -56h23q35 0 47 4q11 4 17.5 13t6.5 19q0 11 -9 17zM882 537q0 2 -1 4q-3 10 -8 15l-135 181q-10 10 -24 10h-404q-14 0 -24 -10l-135 -181
q-5 -5 -8 -15q0 -1 -1 -4q0 -1 -0.5 -2.5t-0.5 -2.5v-422q0 -40 28.5 -68.5t68.5 -28.5h548q40 0 68.5 28.5t28.5 68.5v422q0 1 -0.5 2.5t-0.5 2.5zM324 679h376l68 -113h-512zM391 328l-8 -35h-109l-13 -57h123l-8 -35h-164l44 211h156l-7 -36h-113l-10 -48h109zM598 311.5
q-16 -17.5 -49 -21.5q9 -7 16 -19q15 -25 32 -70h-46q-6 18 -22 55q-9 21 -19 28q-7 4 -22 4h-17l-19 -87h-43l44 211h94q24 0 37.5 -5t21.5 -18.5t8 -32.5q0 -27 -16 -44.5zM809 327.5q-6 -15.5 -15 -24.5t-19 -13q-11 -5 -28 -7q-10 -2 -38 -2h-28l-17 -80h-43l44 211h85
q23 0 36 -6q14 -5 22 -18q7 -12 7 -29q0 -16 -6 -31.5z" />
    <glyph glyph-name="diaobo" unicode="&#xe60e;" 
d="M752 744h-480l-180 -180l60 -540h720l59 540zM820 84h-617l-51 420h720zM152 564l154 120h411l155 -120h-720zM356 435l-120 -120h92v-139h56v139h93zM684 296v139h-56v-139h-93l121 -120l121 120h-93z" />
    <glyph glyph-name="shenhe" unicode="&#xe621;" 
d="M721 602h-166q-5 39 -42 44l-26 -3q-11 -6 -14.5 -14t-3.5 -27h-166q-18 0 -23.5 -1t-13.5 -7q-15 -10 -15 -35v-19q0 -12 9 -19q10 -4 25 -4q17 0 28.5 4.5t16 10.5t7 12.5t1.5 10.5v4q1 3 4 2.5t7.5 -1.5t5.5 -1h313q1 -1 10 1l7 -1q2 -29 31 -39q19 -5 28 -2
q10 4 17 20q3 6 6 15q0 3 1 7.5t2 6.5q6 20 -7 27.5t-42 7.5zM875 730q-46 0 -94.5 12t-85.5 28t-69 34t-47.5 28.5t-17.5 12.5q-21 17 -48 17t-49 -17q-2 -2 -17.5 -12.5t-47.5 -28.5t-68.5 -34t-85.5 -28t-94 -12q-30 0 -51.5 -18.5t-21.5 -44.5v-269q0 -129 93 -242.5
t299 -237.5q17 -11 41 -11t41 11q207 124 300.5 238t93.5 242v269q0 26 -21 44.5t-50 18.5zM859 397q0 -105 -74.5 -199t-239.5 -195q-16 -9 -33.5 -9t-33.5 9q-164 101 -238.5 195t-74.5 199v219q0 21 16.5 36t40.5 15q27 0 55 5.5t51.5 13.5t46 18t40 20.5t30.5 18.5
t20.5 13.5l7.5 5.5q16 13 40 13q21 0 39 -13q2 -2 14.5 -10.5t38 -23.5t55 -28t68.5 -23t75 -10q24 0 41 -15t17 -36v-219h-2zM686 471h-131v5t-2.5 10.5t-6.5 13.5t-12.5 10.5t-19.5 4.5q-23 0 -34.5 -11t-10.5 -22v-11h-131q-8 0 -13.5 -1t-7.5 -1.5t-5.5 -3.5t-5.5 -4
q-12 -13 -12 -35v-137q0 -15 10.5 -25t33.5 -10h131v-44q0 -8 7.5 -22t11.5 -16q13 -6 26 -6q20 0 28 6q3 2 8 16t5 22v44h131q20 0 32 11.5t12 23.5v137q0 25 -12 35q-1 1 -3.5 2.5t-3 2.5t-2.5 2t-3.5 1.5t-4.5 1t-6.5 0.5h-8.5zM469 298h-104q-10 0 -19 3q-7 4 -7 17v0
v24h131v-44h-1zM469 385h-131v22q0 13 6 17q5 3 20 3h103v-42h2zM686 319v-12q0 -3 -3 -6t-9 -3q-2 0 -7.5 -1t-9.5 -1h-100v46h129v-23zM686 385h-129v42h103q14 0 20 -3q6 -4 6 -12v-27z" />
    <glyph glyph-name="24xota" unicode="&#xe62f;" 
d="M905 699q-37 45 -83 81q-136 107 -310 107q-187 0 -328 -121l-1 -1l-0.5 -0.5l-0.5 -0.5q-33 -28 -60 -62q-115 -139 -115 -320q0 -186 120 -327q29 -35 64 -63q139 -115 321 -115q180 0 318 113q43 34 77 77q110 137 110 315q0 179 -112 317zM810 680l14 -16
q4 -4 14 -16t15.5 -19.5t12.5 -17.5t11 -19h-189l59 139q34 -23 63 -51zM386 592q17 36 46 66l113 -66h-159zM413 386q0 -36 -15 -65t-42 -44t-59 -15q-34 0 -60.5 16.5t-40.5 45t-14 59.5q0 60 32 94t83 34q34 0 60.5 -16t41 -44.5t14.5 -64.5zM436 507h191v-28h-80v-213
h-32v213h-79v28zM661 171q-22 -29 -66 -67l-116 67h182zM633 266l92 241h35l98 -241h-36l-28 73h-101l-26 -73h-34zM697 760l-104 -138l-129 75q69 64 138 96q49 -10 95 -33zM512 803h9q-52 -35 -100 -81l-79 45q81 36 170 36zM214 680q38 37 83 64l91 -60q-25 -27 -76 -92
h-159q3 5 16.5 26.5t25 37t19.5 24.5zM214 84q-6 7 -13 14q-38 39 -54 73h189l-59 -138q-34 22 -63 51zM327 3l104 139l129 -75q-69 -64 -137 -97q-50 11 -96 33zM512 -39h-9q51 34 100 81l71 -49q-77 -32 -162 -32zM810 84q-39 -39 -86 -66l-86 60q21 22 95 93h150
q-11 -15 -35 -43.5t-38 -43.5zM759 432q-12 30 -17 50q-5 -24 -13 -46l-27 -71h82zM340.5 472q-19.5 12 -42.5 12q-34 0 -58.5 -23.5t-24.5 -77.5q0 -44 23.5 -69t58.5 -25q36 0 59.5 25.5t23.5 71.5q0 30 -10 52t-29.5 34z" />
    <glyph glyph-name="toufangqudao" unicode="&#xe666;" 
d="M826 650q0 -20 -20 -60q-12 -27 -38 -40q0 -158 -124 -239q-16 -5 -55.5 -23t-59.5 -26l-95 -40q-13 -7 -16 -19.5t-3 -40.5v-20q25 -13 38 -39q19 -40 19 -60q0 -50 -28.5 -79.5t-76.5 -29.5t-76.5 29.5t-28.5 79.5q0 20 19 60q13 26 38 39v478q-25 13 -38 39
q-19 40 -19 60q0 50 28.5 79.5t76.5 29.5t76.5 -29.5t28.5 -79.5q0 -20 -19 -60q-13 -26 -38 -39v-289q28 15 86 30q8 4 25 9.5t22 10.5q8 0 20 6t19 14q4 4 11 9t12 8l5 3q19 20 19 30q0 7 6 19.5t14 19.5v50q-26 13 -39 40q-19 40 -19 60q0 49 29 79t76.5 30t76.5 -30
q48 -12 48 -69zM396 689q19 20 19 40t-19.5 40t-38.5 20t-38 -20t-19 -40t19 -40t38.5 -20t38.5 20zM395.5 13q19.5 20 19.5 40t-19 40t-38.5 20t-38.5 -20t-19 -40t19 -40t38 -20t38.5 20zM759 610q19 20 19 39.5t-19 39.5t-38.5 20t-38.5 -20t-19 -39.5t19 -39.5t38.5 -20
t38.5 20z" />
    <glyph glyph-name="baping" unicode="&#xe627;" horiz-adv-x="1423" 
d="M1057 -11h-686q-90 3 -152.5 71.5t-62.5 163.5q0 94 62 162t151 71q-2 15 -2 22q0 66 44 112t106 46q39 0 75 -22q30 73 93.5 117.5t141.5 44.5q106 0 181.5 -79.5t75.5 -192.5q0 -33 -8 -67q81 -8 137 -72t56 -151q0 -93 -62 -159.5t-150 -66.5v0v0v0zM1137 488v7.5v9.5
q0 90 -41.5 165.5t-113 119.5t-155.5 44q-80 0 -148.5 -40t-111.5 -108q-25 7 -50 7q-77 0 -134 -54t-66 -133q-93 -22 -153.5 -101t-60.5 -181q0 -120 80.5 -205t193.5 -85h680q111 0 189.5 83t78.5 200q0 95 -53 169.5t-135 101.5v0v0zM944 181q-39 -38 -108 -38h-53v281
h55q65 0 105 -34t40 -102.5t-39 -106.5v0v0zM840 466h-104v-365h100q87 0 142 51.5t55 135.5q0 82 -55 130t-138 48v0v0zM511 394q3 9 6 26h1q3 -18 6 -26l55 -151h-122zM494 466l-140 -365h53l35 100h152l37 -100h52l-139 365h-50z" />
    <glyph glyph-name="login" unicode="&#xe613;" 
d="M872 783h-503q-12 0 -20 -8.5t-8 -20.5v-141l57 -44v157h365l-147 -84q-15 -8 -15 -24v-441h-203v120l-57 -46v-103q0 -11 8 -19.5t20 -8.5h232v-108q0 -17 15 -25q6 -4 14 -4q7 0 14 4l237 134q20 7 20 28v605q0 12 -8.5 20.5t-20.5 8.5v0zM872 783zM163 389h152v-75
q0 -10 10 -15q3 -2 7 -2q6 0 10 4l157 114q8 5 8 13.5t-8 14.5l-157 114q-8 6 -17.5 1t-9.5 -15v-75h-152q-17 0 -28.5 -11.5t-11.5 -28t11.5 -28t28.5 -11.5v0zM467 389z" />
    <glyph glyph-name="edit" unicode="&#xe637;" 
d="M73 -55l225 71l521 521l-154 154l-521 -521zM781 807l-65 -64l155 -155l64 65q16 16 16 38.5t-16 38.5l-77 77q-16 16 -38.5 16t-38.5 -16z" />
    <glyph glyph-name="apps" unicode="&#xe7a0;" 
d="M384 768h-192q-26 0 -45 -19t-19 -45v-192q0 -27 19 -47t45 -23l161 -14q53 -5 86.5 28.5t29.5 86.5l-15 161q-3 26 -23 45t-47 19zM353 341l-161 -15q-26 -3 -45 -23t-19 -47v-192q0 -26 19 -45t45 -19h192q27 0 47 19t23 45l15 161q4 53 -29.5 86.5t-86.5 29.5z
M832 326l-161 15q-53 4 -86.5 -29.5t-29.5 -86.5l15 -161q3 -26 23 -45t47 -19h192q26 0 45 19t19 45v192q0 27 -19 47t-45 23zM832 768h-192q-27 0 -47 -19t-23 -45l-15 -161q-4 -53 29.5 -86.5t86.5 -29.5l161 15q26 3 45 23t19 47v192q0 26 -19 45t-45 19z" />
    <glyph glyph-name="houtaijihuoshujunew" unicode="&#xe7af;" 
d="M286 610q9 9 9 22.5t-9 22.5l-45 45q-10 10 -23 10t-22 -10q-10 -9 -10 -22.5t10 -22.5l45 -45q10 -10 23 -9.5t22 9.5zM160 416h-63q-14 0 -23 -9.5t-9 -22.5t9.5 -22.5t22.5 -9.5h63q14 0 23 9.5t9 22.5t-9.5 22.5t-22.5 9.5zM512 704q13 0 22.5 9.5t9.5 22.5v63
q0 14 -9.5 23t-22.5 9t-22.5 -9.5t-9.5 -22.5v-63q0 -14 9.5 -23t22.5 -9zM256 -31q0 -13 9.5 -22.5t22.5 -9.5h448q13 0 22.5 9t9.5 23q0 12 -9.5 21.5t-22.5 9.5h-224h-224q-13 0 -22.5 -9t-9.5 -22zM576 64v72q84 22 138 91t54 157q0 106 -75 181t-181 75t-181 -75
t-75 -181q0 -88 54 -157t138 -91v-72q0 -26 18.5 -45t45.5 -19t45.5 19t18.5 45zM927 416h-63q-14 0 -23 -9.5t-9 -22.5t9.5 -22.5t22.5 -9.5h63q14 0 23 9.5t9 22.5t-9.5 22.5t-22.5 9.5zM828 700q-9 10 -22.5 10t-22.5 -10l-45 -45q-10 -10 -9.5 -23t9.5 -22t22.5 -9
t22.5 9l45 45q10 10 10 23t-10 22z" />
    <glyph glyph-name="router" unicode="&#xe642;" 
d="M89 45q0 -29 20.5 -49.5t49.5 -20.5h702q29 0 49.5 20.5t20.5 49.5v193q0 29 -20.5 49.5t-49.5 20.5h-211v184q0 18 -12.5 31t-31 13t-31 -13t-12.5 -31v-184h-404q-29 0 -49.5 -20.5t-20.5 -49.5v-193v0zM177 141q0 19 13 31.5t31 12.5t31 -12.5t13 -31t-13 -31
t-31 -12.5t-31 12.5t-13 30.5v0zM335 141q0 19 12.5 31.5t31 12.5t31 -12.5t12.5 -31t-12.5 -31t-31 -12.5t-31 12.5t-12.5 30.5v0zM606 676q-76 0 -130 -54t-54 -130q0 -18 13 -31t31 -13t31 13t13 31q0 40 28 68t68 28t68.5 -28t28.5 -68q0 -18 12.5 -31t31 -13t31 13
t12.5 31q0 76 -53.5 130t-130.5 54v0zM606 816q-88 0 -162.5 -43t-118 -118t-43.5 -163q0 -18 13 -31t31 -13t31 13t13 31q0 98 69 167.5t167 69.5t167.5 -69.5t69.5 -167.5q0 -18 13 -31t31 -13t30.5 13t12.5 31q1 88 -42.5 163t-118 118t-163.5 43v0zM606 816z" />
    <glyph glyph-name="role" unicode="&#xe646;" 
d="M198 351h61q61 0 61 162q0 35 -28 54.5t-61.5 19.5t-61.5 -19.5t-28 -54.5q-3 -12 -1 -39t5.5 -54.5t17.5 -48t35 -20.5zM465 399h94q95 0 95 239q0 35 -21 60.5t-52 37t-67.5 11.5t-67.5 -11.5t-51.5 -37t-20.5 -60.5q0 -239 91 -239zM768 351h61q61 0 61 162
q0 35 -28 54.5t-61.5 19.5t-61.5 -19.5t-28 -54.5q-3 -12 -1 -39t6 -54.5t17.5 -48t34.5 -20.5zM897 226q-27 27 -76.5 40.5t-102.5 10.5q46 -17 71 -47q35 -36 50 -118h95q0 8 -1 22t-10.5 45t-25.5 47zM127 226q-16 -16 -25.5 -44.5t-10.5 -49.5l-1 -20h95q15 82 50 118
q23 27 68 44q-52 5 -100.5 -7t-75.5 -41zM296 230q-24 -26 -37.5 -68t-14.5 -71l-2 -30h543v12.5t-3 30t-8 42.5t-16.5 44t-26.5 40q-46 46 -131.5 63.5t-171.5 0.5t-132 -64z" />
    <glyph glyph-name="fukuanshenqingdandengji" unicode="&#xe670;" 
d="M522 448h-274v-42h274v42zM607 595h-359v-42h359v42zM248 258h211v42h-211v-42zM754 680v42q0 18 -12 30t-30 12h-549q-17 0 -29.5 -12t-12.5 -30v-675q0 -18 12.5 -30.5t29.5 -12.5h549q18 0 30 12.5t12 30.5v339l148 209zM712 89q0 -18 -12.5 -30t-29.5 -12h-464
q-18 0 -30.5 12t-12.5 30v591q0 17 12.5 29.5t30.5 12.5h464q17 0 29.5 -12.5t12.5 -29.5v-60l-211 -299v-148l148 64l63 89v-237zM532 315l96 -57l-106 -42v84zM645 281l-96 58l161 234l102 -62l5 4zM728 595l-8 -8l34 51l106 -64l-30 -40z" />
    <glyph glyph-name="repair" unicode="&#xe631;" 
d="M519 297l36 -37l-23 -25q-2 -2 -4.5 -5.5t-1.5 -15t11 -22.5l186 -192q2 -2 5 -3.5t13.5 -4t18.5 5.5l93 94q2 2 4 6.5t1 16t-11 20.5l-184 190q0 1 -1.5 2t-6.5 3.5t-9.5 3.5t-11.5 0t-13 -6l-24 -26l-39 40zM493 408l-199 204v63l-117 72l-58 -58l70 -118h63l196 -201z
M172 64q0 4 1 9t9 14t22 9q3 -1 7.5 -2t12.5 -8.5t9 -21.5q0 -3 -1 -7.5t-9 -13t-21 -9.5l-26 -27q2 -2 4.5 -4t11.5 -6.5t18 -6t22.5 2.5t25.5 14l354 395q5 -3 13 -7t33 -11.5t51 -7.5q8 0 21.5 0.5t47.5 12.5t58 35q5 3 12 10t22.5 30t25 47.5t9.5 63t-15 77.5l-127 -128
l-108 111l127 126q-3 2 -9 5t-26 7.5t-41 4.5t-52 -9.5t-62 -29.5q-6 -5 -16 -14t-30 -38.5t-27 -62.5l-2.5 -10t-3 -25.5t0.5 -38.5t11 -45t25 -48l-399 -340q-1 -1 -2.5 -3t-5.5 -8.5t-5.5 -13t-2.5 -17.5t4 -21l33 10v0zM172 64q0 -3 1.5 -8t9 -13.5t19.5 -8.5l-26 -27
q-34 31 -37 47l33 10v0zM172 64z" />
    <glyph glyph-name="ku" unicode="&#xe60f;" 
d="M363 737h391v77q0 8 -6 14t-14 6h-522q-40 0 -68 -28.5t-28 -68.5v-2q-1 -493 0 -560v-1.5v-1.5q0 -38 26 -66t64 -30q2 -1 3 -1h18v40h-15q-22 0 -38.5 16t-17.5 39v0.5v0.5v4q1 22 17.5 37.5t38.5 15.5h15v99q-1 2 -1 4v406q0 8 6 14t14 6t14 -6t6 -14v-41q40 41 97 41
zM890 51q-9 0 -14.5 -6t-5.5 -14v-55h-502q-23 0 -39 15.5t-17 38.5v0.5v0.5v5q1 22 17.5 37.5t38.5 15.5h517h4h1q8 0 14 6t6 14v565q0 8 -6 14t-14 6h-522q-40 0 -68 -28.5t-28 -67.5v-2q-1 -501 0 -560v-2v-2q0 -38 26 -66t64 -30h3h525q8 0 14 5.5t6 14.5v75q0 8 -6 14
t-14 6v0zM600 579q4 18 16 28q7 6 9 -2q-2 -8 18 -21q12 -7 15 -22q2 -13 -3 -16h-5q-34 3 -42.5 8.5t-7.5 24.5zM465 335q13 18 28 56q14 32 23 67q4 14 5 42q2 9 2 14t9 5q16 -3 21 -1q5 0 14 1q23 2 28 2q18 0 77 16q29 7 39 9q9 3 11 0q14 -18 14 -35q-2 -9 -11 -11
q-56 7 -70 -3q-5 -2 -19 -39q15 2 49 9q5 2 7 2q19 1 24 -6q4 -10 0 -17q-5 0 -15 -7q-15 -7 -48 -16q-16 -4 -23 -5q-23 -7 -26 -32q4 2 11 2q14 -2 17 0q0 3 2 12q0 9 2 12q7 4 21 0q10 -3 8 -7v-3q-1 -5 -1 -7q3 0 17 2q14 1 20 1q7 0 7 -7q0 -1 1 -7q0 -5 2 -7
q-10 -9 -30 -12q-2 0 -19 -9v-16q63 -1 93 9q9 2 11 -3q6 -18 14 -30q3 -16 -9 -18q-21 7 -53 11q-32 2 -58 -2q-2 -33 -2 -67q2 -31 6 -42q5 -5 -27 -5q-3 3 -1 9q1 2 1 8q-3 28 -7 94q-3 7 -21 1q-24 -7 -47 -8q-25 -2 -42 -9q-2 1 -4 14q-2 9 0 9q11 1 35 5q14 3 18 3
q28 11 63 16v16q-25 5 -63 -11q-2 -3 -5 2q-13 25 -11 26q2 6 12 13q7 7 16 28q-14 -4 -19 -2q-7 26 -5 35q0 5 5 5h14q14 -1 23 0q0 4 1 9q6 21 11 30q-2 7 -46 5h-3q-21 -3 -19 -28q-2 -30 -13 -49q-2 -2 -9 -16q-7 -16 -12 -22q-21 -37 -16 -53q4 -12 0 -14
q-14 -14 -36 -34q-6 -5 -9 -7q-14 -7 -37 -8q28 49 54 75v0z" />
    <glyph glyph-name="guanbi" unicode="&#xe630;" 
d="M512 -119q-102 0 -195.5 40t-160.5 107t-107 160.5t-40 195.5t40 195.5t107 160.5t160.5 107t195.5 40t195.5 -40t160.5 -107t107 -160.5t40 -195.5t-40 -195.5t-107 -160.5t-160.5 -107t-195.5 -40zM512 832q-122 0 -225 -60t-163 -163t-60 -225t60 -225t163 -163
t225 -60t225 60t163 163t60 225t-60 225t-163 163t-225 60zM571 384l159 155q11 11 11 26t-11 26t-26.5 11t-26.5 -11l-158 -155l-172 168q-11 11 -26.5 11t-26.5 -11t-11 -26t11 -26l172 -168l-172 -168q-11 -11 -11 -26t11 -26t26.5 -11t26.5 11l172 168l158 -155
q11 -11 26.5 -11t26.5 11t11 26t-11 26z" />
    <glyph glyph-name="home2" unicode="&#xe62e;" horiz-adv-x="1027" 
d="M645 484q-22 21 -39 37l-30 27q-12 11 -14 14q-22 20 -49.5 19t-47.5 -19l-15 -15q-12 -11 -31 -28q-24 -22 -40 -37q-23 -20 -44 -40q-50 -46 -118 -108v-306q0 -19 13.5 -29.5t36.5 -10.5h155v5v135q0 32 22.5 54.5t54.5 22.5h29q32 0 54.5 -22.5t22.5 -54.5v-135v-5
h155q23 1 36 14.5t13 31.5v299q-66 61 -119 110q-23 20 -45 41v0zM910 413q-1 18 -18 34l-19 20q-16 15 -38 36t-48 47q-26 25 -54 53q-28 26 -55 52q-28 28 -48 47q-23 22 -37 36q-15 14 -20 18q-24 24 -59 23.5t-65 -29.5q-4 -4 -28 -26.5t-58 -54.5t-72 -68
q-35 -32 -73 -68q-34 -31 -58.5 -54t-29.5 -28q-13 -12 -13.5 -32t15.5 -34q14 -13 33.5 -12t31.5 10q4 3 23.5 21t46.5 43.5t58 54.5q33 30 60 56q29 27 50 47q22 20 30 27q24 21 48.5 22t49.5 -22q5 -5 26 -24q20 -20 49 -47q31 -29 60 -57q35 -33 60 -57q31 -29 49 -46
q20 -19 24 -22q12 -10 31.5 -11t34.5 13q14 13 13 32v0z" />
    <glyph glyph-name="battery" unicode="&#xe6ab;" 
d="M982 268h-73v-109q0 -23 -17 -40t-41 -17h-781q-24 0 -41 17t-17 40v449q0 24 17 41t41 17h781q24 0 41 -17t17 -41v-108h73q12 0 20 -8.5t8 -20.5v-174q0 -13 -8 -21t-20 -8v0v0zM478 400v67l-199 -100h199v-66l200 99h-200z" />
    <glyph glyph-name="ruku" unicode="&#xe615;" 
d="M289 664h450v-56h-450v56zM288 551h450v-56h-450v56zM288 439h115v-56h-115v56zM288 326h51v-56h-51v56zM852 834h-675q-23 0 -39.5 -16.5t-16.5 -39.5v-788q0 -23 16.5 -39.5t39.5 -16.5h263v57l-263 -1v788h675v-538h56v538q0 23 -16.5 39.5t-39.5 16.5v0zM908 -43
q-1 19 -3 36.5t-10.5 53t-21 65t-37 65t-56.5 60.5t-81.5 43.5t-109.5 21.5v86q0 15 -7 26q-11 16 -41 4h-4l-165 -180q-19 -19 -19 -41q0 -11 5 -21t10.5 -15.5t7.5 -5.5l165 -187q15 -15 26 -15q15 0 22 15q4 8 4 26v109q20 0 39 -1.5t52 -10.5t61 -24t59.5 -45.5
t54.5 -72.5q7 -15 23 -15h7l6 2q13 4 13 21v0v0zM604 140h-30l-18 -3v-128l-150 173q-11 11 -11 15q0 7 7 15l146 157v-109h19q60 0 109 -15.5t79.5 -40t53 -58t33.5 -63.5t17 -62q-30 38 -67 64t-74 37t-62.5 14.5t-51.5 3.5v0z" />
    <glyph glyph-name="warn" unicode="&#xe6c4;" 
d="M629 32q-1 -54 -39 -92.5t-92 -38.5t-92 38.5t-38 92.5h261zM585 796q0 35 -25.5 59.5t-61.5 24.5t-61.5 -24.5t-25.5 -59.5q0 -7 1 -14q-93 -32 -150 -109t-57 -184v-164q-1 -5 -2 -15t-5 -34.5t-9.5 -43t-15.5 -34.5t-22 -16q-19 0 -31.5 -12.5t-12.5 -30t12.5 -30
t30.5 -12.5h697q18 0 30.5 12.5t12.5 30t-12.5 30t-30.5 12.5q-20 0 -33.5 36t-17.5 72l-4 35v164q0 109 -55.5 185.5t-152.5 107.5q1 7 1 14v0v0v0z" />
    <glyph glyph-name="network" unicode="&#xe761;" 
d="M756 393h-78q2 15 2 29q0 47 -23.5 86.5t-63.5 61.5l30 100q12 -3 24 -3q43 0 73 30.5t30 73.5t-30 73.5t-73 30.5t-73 -30.5t-30 -73.5q0 -32 17.5 -58.5t46.5 -37.5l-29 -98q-31 13 -65 13q-64 0 -112 -44l-153 155q26 28 26 70q0 43 -30 73.5t-72.5 30.5t-73 -30.5
t-30.5 -73.5t30.5 -73.5t72.5 -30.5t71 28l-5 -5l154 -155q-44 -48 -44 -113q0 -57 34 -102l-132 -107q-31 41 -81 41q-43 0 -73 -30.5t-30 -73.5t30 -73.5t72.5 -30.5t73 30.5t30.5 73.5q0 27 -13 50l133 108q49 -54 122 -54q37 0 69 15l46 -106q-23 -14 -37.5 -38
t-14.5 -52q0 -44 30.5 -74.5t73 -30.5t72.5 30.5t30 74t-30 74t-73 30.5q-19 0 -37 -7l-46 106q59 35 77 102h78q-2 -10 -2 -20q0 -43 30 -73.5t73 -30.5t73 30.5t30 73.5t-30 73.5t-73 30.5q-33 0 -59.5 -19t-37.5 -50v0zM227 709zM629 709zM785 371zM644 138zM411 333z
" />
    <glyph glyph-name="tag" unicode="&#xe635;" 
d="M760 520l-195 158q-13 10 -30 15v38q0 36 26 62t62.5 26t62 -26t25.5 -62h43q0 54 -38.5 92.5t-92.5 38.5t-92 -38.5t-38 -92.5v-36q-20 -5 -35 -17l-194 -158q-28 -22 -28 -58v-494q0 -25 18 -43t43 -18h429q26 0 43.5 18t17.5 43v494q0 36 -27 58zM512 478
q21 0 35.5 -15t14.5 -35.5t-14.5 -35.5t-35.5 -15t-36 15t-15 35.5t15 35.5t36 15zM745 -32q0 -7 -5.5 -12.5t-13.5 -5.5h-429q-8 0 -13 5.5t-5 12.5v494q0 15 12 25l194 158q3 2 8 4v-130q-33 -7 -54 -32.5t-21 -58.5q0 -39 27.5 -66.5t66 -27.5t66 27.5t27.5 66.5
q0 32 -19.5 57t-50.5 33v129l1.5 -1l1.5 -1l195 -158q12 -10 12 -25v-494zM384 113h255v-42h-255v42z" />
    <glyph glyph-name="list" unicode="&#xe616;" 
d="M789 768h-554q-26 0 -45 -19t-19 -45v-683q0 -25 19 -44.5t45 -19.5h554q26 0 45 19.5t19 44.5v683q0 26 -19 45t-45 19zM811 43q0 -16 -13.5 -29.5t-29.5 -13.5h-512q-18 0 -30.5 13t-12.5 30v640q0 16 12.5 29t30.5 13h512q16 0 29.5 -13t13.5 -29v-640zM320 512h213
q10 0 16 6t6 15.5t-6 15.5t-16 6h-213q-10 0 -15.5 -6t-5.5 -15.5t5.5 -15.5t15.5 -6zM320 341h299q9 0 15 6t6 15.5t-6 15.5t-15 6h-299q-10 0 -15.5 -6t-5.5 -15.5t5.5 -15.5t15.5 -6zM704 213h-384q-10 0 -15.5 -5.5t-5.5 -15.5t5.5 -15.5t15.5 -5.5h384q10 0 15.5 5.5
t5.5 15.5t-5.5 15.5t-15.5 5.5z" />
    <glyph glyph-name="package" unicode="&#xe611;" 
d="M652 737q-11 0 -18.5 -8t-7.5 -19v-652q0 -11 7.5 -19t18.5 -8t19 8t8 19v652q0 11 -8 19t-19 8zM724 721q-5 0 -8 -3t-3 -8v-652q0 -5 3 -8t8 -3t8.5 3t3.5 8v652q0 5 -3.5 8t-8.5 3zM786 721q-5 0 -8.5 -3t-3.5 -8v-652q0 -5 3.5 -8t8.5 -3t8.5 3t3.5 8v652q0 5 -3.5 8
t-8.5 3zM856 737q-11 0 -18.5 -8t-7.5 -19v-652q0 -11 7.5 -19t18.5 -8t19 8t8 19v652q0 11 -8 19t-19 8zM529 736h-99q-20 0 -33.5 -14t-13.5 -33l-1 -608q0 -20 14 -33.5t34 -13.5h99q19 0 33 13.5t14 33.5v607q0 20 -13.5 34t-33.5 14zM520 508l-81 1q-7 0 -11.5 4.5
t-4.5 11.5t4.5 12t11.5 5h81q6 0 11 -5t5 -12t-5 -12t-11 -5zM520 579h-81q-6 0 -11 5t-5 12t5 11.5t11 4.5h81q6 0 11 -4.5t5 -11.5t-5 -12t-11 -5zM289 736h-99q-19 0 -33 -14t-14 -33v-608q0 -20 13.5 -33.5t33.5 -13.5h99q19 0 33 13.5t14 33.5v607q0 20 -13.5 34
t-33.5 14zM280 508l-81 1q-6 0 -11 4.5t-5 11.5t5 12t11 5h81q7 0 11.5 -5t4.5 -12t-4.5 -12t-11.5 -5zM280 579h-80q-7 0 -12 5t-5 12t5 11.5t12 4.5h80q7 0 11.5 -4.5t4.5 -11.5t-4.5 -12t-11.5 -5z" />
    <glyph glyph-name="userGroup" unicode="&#xe647;" 
d="M724 347q52 0 88.5 36.5t36.5 88t-36.5 88.5t-88.5 37t-88.5 -37t-36.5 -88.5t36.5 -88t88.5 -36.5zM724 546q31 0 52.5 -22t21.5 -52.5t-21.5 -52t-52.5 -21.5t-52.5 21.5t-21.5 52t21.5 52.5t52.5 22zM940 237q-9 32 -40 58t-65 31h-11q-8 0 -14 -3q-10 -6 -17 -9
q-37 -16 -81 -16h-1q-11 0 -20 1q5 -6 9.5 -14.5t9 -19.5t6.5 -15q17 1 44 5t40 8l12 5q5 2 11 2h7q27 -3 49.5 -35t11.5 -62q-3 -9 -10 -12q-42 -22 -129 -28q3 -24 4 -49q56 4 102.5 16t65 21t18.5 10q6 3 10 9.5t4 11.5q-1 26 -5 47t-8 29zM542 343h-14q-10 0 -18 -5
q-15 -8 -21 -11q-49 -21 -104 -21h-2h-1q-55 0 -105 22q-45 21 -80 56q44 -35 45 -40q0 -1 -4 -1h-13q-44 -6 -83.5 -39t-52.5 -75q-18 -37 -21 -110q0 -7 5 -15t13 -12q4 -3 11.5 -7t35.5 -15t59.5 -19t83 -15t107.5 -7t107 6.5t84 15.5t58.5 18.5t36.5 15.5l11 7
q7 4 12.5 12t5.5 15q-3 73 -21 108v0q-12 42 -51.5 75.5t-83.5 40.5zM621 125q-8 -5 -25.5 -11.5t-79.5 -18t-133 -11.5t-130.5 10t-83.5 21l-24 10q-15 6 -14 17q1 21 5 39t8 25l4 8q24 62 85 69h12q7 0 14 -3q9 -4 18 -7q45 -16 106 -16t106 16l18 7q7 3 14 3h11
q65 -8 87 -70q15 -23 17 -71q-1 -11 -15 -17v0zM383 346.5q81 0.5 138.5 57.5t57.5 138.5t-57.5 139t-138.5 57.5t-138.5 -57.5t-57.5 -138.5t57.5 -139t138.5 -57.5zM383 688q60 0 102.5 -42.5t42.5 -102.5t-42.5 -102.5t-102.5 -42.5t-102.5 42.5t-42.5 102.5t42.5 102.5
t102.5 42.5v0z" />
    <glyph glyph-name="wechart" unicode="&#xe685;" 
d="M853 19q-11 0 -51 26q-21 13 -27 17q-45 -14 -92 -14q-113 0 -194 70t-81 170t81 171q81 69 194.5 69t193.5 -69q82 -71 82 -171q0 -59 -31 -111q-28 -45 -74 -77q3 -7 10 -23q6 -15 9 -21q2 -7 2 -12q1 -16 -13 -23q-4 -2 -9 -2zM775 104q11 0 41 -20q-1 3 -1 5
q-3 10 -3 16q0 16 12 24q45 28 69.5 70t24.5 89q0 82 -69 140.5t-166 58.5t-166 -58.5t-69 -140.5t69 -140.5t166 -58.5q44 0 85 14q4 1 7 1v0zM603.5 304q-21.5 0 -36.5 15t-15 36.5t15 36.5t36.5 15t36.5 -15t15 -36.5t-15 -36.5t-36.5 -15zM603.5 366q-4.5 0 -7.5 -3
t-3 -7.5t3 -7.5t7.5 -3t7.5 3t3 7.5t-3 7.5t-7.5 3zM769.5 304q-21.5 0 -36.5 15t-15 36.5t15 36.5t36.5 15t36.5 -15t15 -36.5t-15 -36.5t-36.5 -15zM769.5 366q-4.5 0 -7.5 -3t-3 -7.5t3 -7.5t7.5 -3t8 3t3.5 7.5t-3.5 7.5t-8 3zM185 155q-4 0 -9 2q-15 6 -13 24q0 5 3 13
q2 7 10 25q10 22 12 30q-56 38 -88 92q-37 61 -37 131q0 57 26 110q25 51 70 90q95 81 229 81q118 0 211 -70q92 -70 113 -172l-41 -8q-17 88 -99.5 148.5t-183.5 60.5q-118 0 -201 -70.5t-83 -169.5q0 -58 30 -108.5t84 -85.5q13 -8 12 -24q0 -8 -3 -18q-2 -7 -6 -17v0
q32 21 43.5 26t20.5 2q49 -16 103 -16q25 0 45 2l5 -41q-22 -2 -50 -2q-57 0 -110 16q-8 -4 -35 -21q-46 -30 -58 -30zM482.5 499q-23.5 0 -40.5 17t-17 41t17 41t40.5 17t40.5 -17t17 -41t-17 -41t-40.5 -17zM483 574q-7 0 -12 -5t-5 -12t5 -12t12 -5t11.5 5t4.5 12
t-4.5 12t-11.5 5zM284.5 499q-23.5 0 -40.5 17t-17 41t17 41t40.5 17t40.5 -17t17 -41t-17 -41t-40.5 -17zM284 574q-7 0 -11.5 -5t-4.5 -12t4.5 -12t11.5 -5t12 5t5 12t-5 12t-12 5z" />
    <glyph glyph-name="stop" unicode="&#xe62c;" horiz-adv-x="1032" 
d="M518 855q-96 0 -183.5 -37.5t-150.5 -100.5t-100.5 -150.5t-37.5 -183t37.5 -183t100.5 -150.5t150.5 -100.5t183.5 -37.5t183 37.5t150 100.5t100.5 150.5t37.5 183t-37.5 183t-100.5 150.5t-150 100.5t-183 37.5zM518 -22q-111 0 -204 54.5t-147.5 147.5t-54.5 203.5
t54.5 203.5t147.5 147.5t203.5 54.5t204 -54.5t147.5 -147.5t54 -203.5t-54 -203.5t-147.5 -147.5t-203.5 -54.5v0zM691 236q0 -10 -8 -18t-18 -8h-294q-11 0 -19 8t-8 18v295q0 10 8 18t19 8h294q10 0 18 -8t8 -18v-295z" />
    <glyph glyph-name="men" unicode="&#xe629;" horiz-adv-x="1303" 
d="M973 721l8 -56h45v-22h159v-57h-194l70 -528h17l13 -124h-137l-7 124h2l-47 528h-533l-47 -528h10l-8 -124h-137l13 124h10l70 528h-184v57h159v22h35l8 56h-149l-18 30h-24l-45 83q387 -31 573 -31q52 0 130 3t152.5 7.5t141.5 9.5t108 8l40 3l-34 -83h-29l-13 -30h-158
zM890 721l5 -56h-28v-22h-453v22h-38l5 56h509v0z" />
    <glyph glyph-name="robot" unicode="&#xe67a;" 
d="M592 -66l-4 2l-6 4q-18 9 -25 29q-6 18 4 35q8 12 14 16h-120q20 -15 20 -41q-3 -31 -31 -43l-4 -2h-22q-30 13 -37 35q-8 27 21 53h-21q-29 0 -41 4q-39 8 -63 40t-21 73q6 55 23 202q4 38 35 65t71 27h258q43 0 73.5 -28.5t34.5 -71.5q3 -32 10.5 -94.5t10.5 -93.5
q6 -47 -25 -84q-29 -36 -78 -39h-40l2 -2q12 -12 16 -21q9 -15 2 -32q-7 -20 -25 -29l-14 -4h-18v0zM600 73h57q33 0 47 21q18 20 15 47q-3 31 -10.5 93.5t-10.5 94.5q-3 23 -18.5 38t-38.5 15h-256q-21 0 -37.5 -14t-19.5 -35q-8 -66 -21 -196q0 -13 3 -19q4 -20 20 -31.5
t41 -11.5h143zM346 460q-12 0 -16 4t-4 16v336q0 4 4 12l2 4v2h360v-2q0 -2 2 -4q4 -8 4 -12v-336q0 -12 -4 -16t-16 -4h-332zM649 511v270h-272v-272h272v2zM134 143q0 3 1 9t1 9q4 29 6 41q11 65 49 112q31 35 65 45l11 5l-5 -13q0 -1 -1 -3t-1 -3q-38 -80 -112 -239
q-4 -4 -6 -8l-2 -2l-8 -13v60h2zM882 566l8 -2q5 -126 -43 -198q-23 -39 -67 -58q-1 0 -3.5 -1t-4.5 -1l-15 -6zM537 711h77v-75h-77v75zM414 711h76v-75h-76v75z" />
    <glyph glyph-name="terminal" unicode="&#xe605;" horiz-adv-x="1160" 
d="M1002 734q0 9 -6 15t-16 6h-795q-10 0 -13 -4t-3 -16v-681q0 -23 6 -31t22 -8h138.5h261h251.5h134q20 0 20 29v690zM480 697q14 1 24 -10t10 -26t-10 -25.5t-24 -10.5t-24 10.5t-10 25.5t10 25.5t24 10.5v0zM375 697q14 0 24 -10.5t10 -25.5t-9.5 -25.5t-24 -10.5
t-24 10.5t-10.5 25.5q0 15 10 25.5t24 10.5v0zM268 697q14 1 24.5 -10t10.5 -26t-10 -25.5t-24 -10.5t-24 10.5t-10 25t9.5 25.5t23.5 11v0zM959 89q0 -15 -6 -21.5t-20 -6.5h-702q-8 0 -11.5 1t-5 6t-2 7.5t-0.5 14.5v501q0 10 2.5 12.5t11.5 2.5h360h114h135h114q6 0 8 -2
t2 -9v-506v0zM788 112q10 0 10 -5v-35q0 -6 -6 -6h-206q-6 0 -6 7v8.5v14.5v10q0 4 1.5 5t6.5 1h100.5h99.5v0zM500 252q-18 15 -70.5 56.5t-60.5 48.5q-6 4 -4 9q10 17 17 26q5 7 14 -1q127 -100 149 -119t-4 -43q-12 -11 -78.5 -65.5l-66.5 -54.5q-6 -4 -8 -4.5t-8 4.5
q-1 3 -7.5 11t-7.5 10q-6 7 4 17q9 7 61 48t70 57z" />
    <glyph glyph-name="version" unicode="&#xe677;" 
d="M713 643h120q10 0 15.5 11.5t-1.5 19.5l-120 116q-8 8 -19.5 3.5t-11.5 -16.5v-117q0 -17 17 -17zM727 579q-49 0 -69.5 21t-22.5 74v120h-389q-38 0 -55 -18t-17 -54v-676q0 -40 17.5 -56t54.5 -16h532q39 0 55.5 17t16.5 55v533h-123zM287 691h228q17 0 17 -17t-17 -17
h-228q-17 0 -17 17t17 17zM270 572q0 17 17 17h228q17 0 17 -17t-17 -17h-228q-17 0 -17 17zM700 398l-127 -277q-5 -10 -17 -10h-92q-12 0 -17 10l-126 277q-5 7 1 15.5t16 8.5h44q12 0 17 -11q4 -8 34.5 -71.5t51 -109t20.5 -51.5h7q1 2 18 34.5t43.5 88t47.5 109.5
q5 11 17 11h45q10 2 14.5 -6t2.5 -18z" />
    <glyph glyph-name="agents" unicode="&#xe622;" 
d="M513 570q-63 0 -108 -44t-45 -106t45 -106t108 -44t108 44t45 106t-45 106t-108 44zM514.5 244q-62.5 0 -107 -43.5t-44.5 -104.5v-72h303v72q0 61 -44.5 104.5t-107 43.5zM735 573q51 -69 51 -153q0 -99 -70 -176l40 -38q85 91 85 214q0 106 -66 192zM296 580l-40 39
q-71 -88 -71 -199q0 -127 91 -221l39 39q-75 77 -75 182q0 88 56 160zM903 737l-39 -38q102 -122 102 -279q0 -86 -32 -163t-90 -138l39 -38q65 68 101.5 155.5t36.5 183.5q0 179 -118 317zM167 706l-38 38q-59 -67 -91.5 -150t-32.5 -174q0 -99 38 -188t106 -157l38 38
q-60 61 -93.5 140t-33.5 167q0 162 107 286z" />
    <glyph glyph-name="Versionupdaterule-copy" unicode="&#xe625;" 
d="M513 -128h-1q-104 0 -199 40.5t-163.5 109t-109 163.5t-40.5 199t40.5 199t109 163.5t163.5 109t199 40.5t199 -40.5t163.5 -109t109 -163.5t40.5 -199v0q0 -104 -40.5 -199t-109 -163.5t-163 -109t-198.5 -40.5v0zM714 481l-161 161q-17 17 -40.5 17t-39.5 -17
l-161 -161q-17 -17 -17 -40.5t16.5 -40t40.5 -16.5t40 17l64 63v-308q0 -23 16.5 -39.5t40 -16.5t40.5 16.5t17 39.5v308l64 -63q16 -17 39.5 -17t40.5 16.5t17 40t-17 40.5z" />
    <glyph glyph-name="business" unicode="&#xe632;" 
d="M916 47h-75v425q-1 30 -23 51.5t-52 21.5h-131q-31 0 -54 -22.5t-23 -53.5v-422h-450q-7 0 -12.5 -6t-5.5 -13.5t5.5 -13t12.5 -5.5h808q8 0 13 5.5t5 13t-5.5 13.5t-12.5 6v0zM736 369q0 -8 -5.5 -13.5t-13.5 -5.5h-35q-8 0 -13.5 5.5t-5.5 13.5v52q0 8 5.5 13t13.5 5
h35q8 0 13.5 -5t5.5 -13v-52zM736 208q0 -7 -5.5 -12.5t-13.5 -5.5h-35q-8 0 -13.5 5.5t-5.5 12.5v53q0 8 5.5 13t13.5 5h35q8 0 13.5 -5t5.5 -13v-53zM525 263q-3 -1 -3.5 -1h-0.5h-36q-8 0 -13.5 5.5t-5.5 12.5v54q0 8 5.5 12t13.5 4h36l0.5 1t3.5 1v117q0 45 32 77t78 32
h12v133q0 38 -26.5 64.5t-63.5 26.5h-288q-37 0 -63.5 -27t-26.5 -64v-626h346v178zM537 605q0 -8 -5 -13t-13 -5h-36q-7 0 -12.5 5t-5.5 13v52q0 8 5.5 13t12.5 5h36q8 0 13 -5t5 -13v-52zM360 445q0 -8 -5 -13.5t-13 -5.5h-36q-7 0 -12.5 5.5t-5.5 13.5v52q0 7 5.5 12.5
t12.5 5.5h36q7 0 12.5 -5.5t5.5 -12.5v-52zM360 605q0 -8 -5 -13t-13 -5h-36q-7 0 -12.5 5t-5.5 13v52q0 8 5.5 13t12.5 5h36q7 0 12.5 -5t5.5 -13v-52z" />
    <glyph glyph-name="shenfen" unicode="&#xe62d;" 
d="M210 5q-47 0 -80.5 33.5t-33.5 80.5v498q0 47 33.5 80.5t80.5 33.5h623q47 0 80 -33.5t33 -80.5v-498q0 -47 -33 -80.5t-80 -33.5h-623zM210 670q-22 0 -37.5 -15.5t-15.5 -37.5v-498q0 -22 15.5 -37.5t37.5 -15.5h623q21 0 36.5 15.5t15.5 37.5v498q0 22 -15.5 37.5
t-36.5 15.5h-623zM791 192q-13 0 -21.5 9t-8.5 22q0 39 -27.5 66.5t-66.5 27.5t-67 -27.5t-28 -66.5q0 -13 -8.5 -22t-21.5 -9t-21.5 9t-8.5 22q0 39 19 74t53 56q-31 33 -31 77q0 47 33.5 80.5t80.5 33.5t80 -33.5t33 -80.5q0 -44 -31 -77q34 -21 53.5 -56t19.5 -74
q0 -13 -9 -22t-22 -9zM666.5 483q-21.5 0 -37 -15.5t-15.5 -37.5t15.5 -37t37 -15t37 15t15.5 37t-15.5 37.5t-37 15.5zM435 482h-187q-13 0 -22.5 9.5t-9.5 22.5t9.5 22.5t22.5 9.5h187q13 0 22.5 -9.5t9.5 -22.5t-9.5 -22.5t-22.5 -9.5zM435 336h-187q-13 0 -22.5 9.5
t-9.5 22.5t9.5 22.5t22.5 9.5h187q13 0 22.5 -9.5t9.5 -22.5t-9.5 -22.5t-22.5 -9.5zM435 192h-187q-13 0 -22.5 9t-9.5 22.5t9.5 23t22.5 9.5h187q13 0 22.5 -9.5t9.5 -23t-9.5 -22.5t-22.5 -9z" />
    <glyph glyph-name="yuzhi" unicode="&#xe617;" 
d="M560 427l3 -1v-1q17 -17 17 -41.5t-17.5 -41.5t-42 -17t-41.5 17v0l-2 2q-11 12 -14 29l-128 196l208 -131q16 -6 25 -19zM798 670q-57 57 -131 87.5t-155 30.5v0v-52v0q146 0 249 -103q67 -68 91 -158.5t0 -181.5t-91 -158q-103 -103 -249 -103t-249 103t-103 249
t103 249q1 0 2 1l1 1l-45 30q-55 -57 -84.5 -129.5t-29.5 -151.5q0 -81 31 -155t88 -131.5t131 -88t155 -30.5t155 30.5t131 88.5q78 77 105.5 181.5t0 208.5t-105.5 182zM561 788h-49v-199h49v199z" />
    <glyph glyph-name="biangeng" unicode="&#xe626;" 
d="M16 384q0 -101 39.5 -192.5t105.5 -158t158 -106t193 -39.5t193 39.5t158.5 106t105.5 158t39 192.5t-39 193t-105.5 158.5t-158.5 106t-193 39.5t-193 -39.5t-158 -106t-105.5 -158.5t-39.5 -193zM830 252l-189 -86v54h-406q-17 0 -29 9.5t-12 22.5t12 22.5t29 9.5h406
v55zM383 549h407q16 0 28 -9.5t12 -23t-12 -22.5t-28 -9h-407v-55l-189 87l189 86v-54z" />
    <glyph glyph-name="electricity" unicode="&#xe61d;" 
d="M762 -102h-500q-19 0 -35 16t-16 35v787q0 19 16 35t35 16h500q19 0 35 -16t16 -35v-787q0 -23 -15.5 -37t-35.5 -14zM262 755q-6 0 -12.5 -5t-6.5 -14v-787q0 -6 5.5 -12.5t13.5 -6.5h500q6 0 12.5 5t6.5 14v787q0 6 -5.5 12.5t-13.5 6.5h-500zM282 205l460 173v-378
q0 -14 -8.5 -23t-23.5 -9h-396q-15 0 -23.5 9t-8.5 23v205zM570 582l-45 -172h89l-160 -256l52 179h-103zM435 870h154q6 0 12.5 -5t6.5 -14v-32q0 -6 -5.5 -12.5t-13.5 -6.5h-154q-6 0 -12.5 5.5t-6.5 13.5v32q0 19 19 19z" />
    <glyph glyph-name="pictureGroup" unicode="&#xe683;" 
d="M336 519q-36 0 -62 -25.5t-26 -62t26 -62t62 -25.5t62 25.5t26 62t-26 62t-62 25.5zM884 758h-643q-31 0 -53 -21.5t-22 -52.5v-4v0v-12v0v-15h-26q-31 0 -52.5 -21.5t-21.5 -52.5v-495q0 -31 21.5 -52.5t52.5 -21.5h643q31 0 53 21.5t22 52.5v31h26q30 0 52 21.5
t22 52.5v495q0 31 -22 52.5t-52 21.5zM810 148v0l-163 216q-9 18 -42 18q-17 0 -29 -4.5t-16 -8.5l-4 -4l-142 -219q-8 -15 -27 -15q-8 0 -15.5 3.5t-10.5 7.5l-3 4l-74 85q-20 26 -44 26q-11 0 -22.5 -7.5t-17.5 -14.5l-6 -7l-82 -102v446q0 11 8 20t18 9h646q10 0 18 -9
t8 -20v-424zM910 454v-258q0 -11 -7.5 -20t-18.5 -9h-11v0h-16v412q0 31 -21.5 52.5t-52.5 21.5h-570v15v0v9v0v2v0q1 10 8.5 18.5t17.5 8.5h645q11 0 18.5 -9t7.5 -20v-223z" />
    <glyph glyph-name="sysytem" unicode="&#xe636;" 
d="M840 772h-656q-8 0 -13.5 -3.5t-5.5 -8.5v-479q0 -5 5.5 -8.5t13.5 -3.5h128q8 -4 23.5 -12.5t21.5 -12t17 -10.5t15.5 -11t11.5 -11t9 -12.5t4.5 -13.5t2.5 -16q0 -43 -20 -71h-97q-5 0 -8.5 -3.5t-3.5 -8.5l-68 -78q0 -5 3.5 -8.5t8.5 -3.5h560q5 0 8.5 3.5t3.5 8.5
l-68 78q0 5 -3.5 8.5t-8.5 3.5h-97q-20 29 -20 71q0 8 2.5 16t4.5 13.5t9 12.5t11.5 11t15.5 11t17 10.5t21.5 12t23.5 12.5h128q8 0 13.5 3.5t5.5 8.5v479q0 12 -19 12zM807 322h-589v397h589v-397zM242 486l40 4q4 -21 14 -29q11 -9 30 -9t29 8q11 8 11 19q0 8 -5 13
q-4 5 -14 8q-7 3 -33 9q-32 8 -46 20q-18 17 -18 41q0 15 8.5 28.5t25.5 20.5t39 7q38 0 57 -16.5t21 -44.5l-41 -2q-2 16 -11 23q-9 6 -26 6t-28 -7q-6 -4 -6 -12q0 -7 6 -13q8 -6 37 -13t44 -15q15 -7 23 -20t8 -32q0 -17 -10 -33q-10 -15 -27 -22t-44 -7q-38 0 -59 17
t-25 51zM493 420v85l-73 117h47l48 -80l46 80h47l-74 -117v-84h-41v-1zM618 486l40 4q4 -21 14 -29q10 -9 29.5 -9t29.5 8t10 19q0 8 -4 13q-5 5 -15 8q-6 3 -32 9q-33 8 -46 20q-19 17 -19 41q0 15 9 28.5t25 20.5q17 7 40 7q38 0 57 -16.5t20 -44.5l-40 -2q-3 16 -12 23
q-8 6 -26 6q-17 0 -27 -7q-7 -4 -7 -12q0 -7 6 -13q8 -6 38 -13q28 -7 44 -15q14 -7 22 -20t8 -32q0 -17 -10 -33q-9 -15 -27 -22q-16 -7 -44 -7q-38 0 -58 17q-21 17 -25 51z" />
    <glyph glyph-name="usb" unicode="&#xe745;" 
d="M791 803q0 21 -12.5 33.5t-33.5 12.5h-466q-21 0 -33.5 -12.5t-12.5 -33.5v-186h558v186zM419 710h-93v46h93v-46zM698 710h-93v46h93v-46zM791 570h-558q-39 0 -66 -27.5t-27 -65.5v-372q0 -77 54.5 -131.5t131.5 -54.5h372q77 0 131.5 54.5t54.5 131.5v372
q0 38 -27 65.5t-66 27.5z" />
    <glyph glyph-name="telphone" unicode="&#xe662;" 
d="M884 524q9 0 16 6.5t7 16.5v23q0 10 -7 16.5t-16 6.5h-79v104q0 34 -26 58.5t-63 24.5h-511q-36 0 -62 -24.5t-26 -58.5v-626q0 -34 26 -58.5t62 -24.5h511q37 0 63 24.5t26 58.5v118h79q9 0 16 6.5t7 16.5v23q0 10 -7 16.5t-16 6.5h-79v95h79q9 0 16 6.5t7 16.5v24
q0 9 -7 16t-16 7h-79v101h79zM455.5 638q56.5 0 96.5 -40t40 -96.5t-40 -96.5t-96.5 -40t-96.5 40t-40 96.5t40 96.5t96.5 40zM674 186q0 -24 -17.5 -41.5t-42.5 -17.5h-318q-25 0 -42.5 17.5t-17.5 41.5v72v0v4q0 52 36.5 89t88.5 38q40 -36 94.5 -36t94.5 36q52 -1 88 -38
t36 -89v-1.5v-2.5v-72z" />
    <glyph glyph-name="kucun" unicode="&#xe6a3;" 
d="M512 802q-114 0 -210 -56t-152 -152t-56 -210t56 -210t152 -152t210 -56t210 56t152 152t56 210t-56 210t-152 152t-210 56zM359 269q-12 -59 -38 -103q-22 30 -41 46q23 40 32 98q8 50 9 109l1 109v8q0 18 -3 42q24 -3 60 -3h119q-7 11 -18 27l55 16q18 -30 23 -43h116
q29 0 56 3v-49q-18 2 -52 2h-305q0 -192 -14 -262zM732 234q-19 2 -47 2h-93v-28q0 -26 3 -48h-56q3 23 3 48v28h-121q-29 0 -46 -3v50q21 -4 45 -4h122v44h-82q-13 0 -21 -1h-10q-3 0 -6 -1l-12 43q14 5 21 17l23 55h-23q-18 0 -39 -2v48q17 -2 40 -2h38q11 27 13 42
l54 -12q-4 -4 -6 -11q-1 -1 -5 -10q-1 -2 -5 -9h134q36 0 52 2v-49q-25 3 -51 3h-150l-30 -70h64v13q0 25 -1 39h53q-2 -22 -2 -39v-13h69q29 1 36 3v-49q-13 3 -36 3h-69v-44h95q24 0 45 3v-48h1z" />
    <glyph glyph-name="follow" unicode="&#xe603;" 
d="M514 30l-313 299q-15 16 -26 35q-12 18 -19 39q-13 35 -13 83q0 86 61.5 137t152.5 51q73 0 155 -88q83 88 156 88q91 0 152.5 -51t61.5 -137q0 -47 -13 -82q-7 -22 -20 -42q-10 -16 -23 -31l-2 -2z" />
    <glyph glyph-name="echarts" unicode="&#xe61c;" 
d="M660 77q0 8 -5 14.5t-13 6.5h-260q-8 0 -13 -6.5t-5 -14.5v-84h-186v-62h668v62h-186v84zM929 837h-834q-26 0 -44.5 -18t-18.5 -44v-585q0 -26 18.5 -44t44.5 -18h834q26 0 44.5 18t18.5 44v585q0 26 -18.5 44t-44.5 18zM929 211q0 -8 -6 -14.5t-14 -6.5h-794
q-8 0 -14 6.5t-6 14.5v543q0 9 6 15t14 6h794q8 0 14 -6t6 -15v-543zM716 251h113v329h-113v-329zM535 251h113v430h-113v-430zM196 251h113v127h-113v-127zM354 251h113v228h-113v-228zM354 251z" />
    <glyph glyph-name="news" unicode="&#xe604;" 
d="M833 584h-123v72q0 51 -36.5 87.5t-87.5 36.5h-346q-51 -1 -87 -37t-37 -87v-544q0 -51 36.5 -87.5t87.5 -36.5h544q51 0 87.5 36.5t36.5 87.5v398q-1 30 -22.5 52t-52.5 22zM166 112v544q0 31 21.5 52.5t52.5 21.5h346q31 0 52.5 -21.5t21.5 -52.5v-544q0 -41 26 -74
h-446q-31 0 -52.5 21.5t-21.5 52.5zM784 38q-31 0 -52.5 21.5t-21.5 52.5v422h123q11 0 18 -7t7 -17v-398q0 -31 -21.5 -52.5t-52.5 -21.5zM537 582h-247q-11 0 -18 -7.5t-7 -17.5t7 -17.5t18 -7.5h247q10 0 17 7.5t7 17.5t-7 17.5t-17 7.5zM537 458h-247q-11 0 -18 -7
t-7 -17.5t7 -17.5t18 -7h247q10 0 17 7t7 17.5t-7 17.5t-17 7zM537 335h-247q-11 0 -18 -7.5t-7 -17.5t7 -17.5t18 -7.5h247q10 0 17 7.5t7 17.5t-7 17.5t-17 7.5z" />
    <glyph glyph-name="plan" unicode="&#xe695;" 
d="M808 711v47q0 35 -21 55.5t-60 20.5q-37 0 -58.5 -20.5t-21.5 -55.5v-50h-54v50q0 35 -21.5 55.5t-59.5 20.5q-37 0 -59 -20.5t-22 -55.5v-50h-54v50q0 35 -21 55.5t-59 20.5q-37 0 -58 -20.5t-21 -55.5v-50h-92v-774h774v774zM689 758q0 33 38 33q21 0 30 -7.5t9 -25.5
v-130q0 -34 -39 -34q-20 0 -29 7.5t-9 26.5v130zM476 758q0 33 38 33q21 0 29.5 -7.5t8.5 -25.5v-130q0 -34 -38 -34q-20 0 -29 7.5t-9 26.5v130zM261 758q0 33 38 33q20 0 29 -7.5t9 -25.5v-130q0 -34 -38 -34q-21 0 -29.5 7.5t-8.5 26.5v130zM835 1h-644v537h644v-537z
M400 114q13 -14 33 -14h23q16 0 34 14l260 260q5 5 5 13.5t-5 13.5l-47 47q-5 5 -13.5 5t-13.5 -5l-213 -215q-5 -6 -13.5 -6t-13.5 6l-79 78q-5 5 -13.5 5t-13.5 -5l-47 -47q-5 -5 -5 -13.5t5 -13.5z" />
    <glyph glyph-name="accessory" unicode="&#xe6dd;" 
d="M843 636q-20 20 -53 33.5t-60 13.5v0v0h-1q-27 0 -60 -13.5t-52 -33.5v0l-295 -294q-11 -12 -19.5 -32t-8.5 -36q0 -40 28 -68t68 -28v0q40 0 68 28l294 295q10 9 10 22t-9.5 22.5t-22.5 9.5t-23 -9l-294 -295q-10 -9 -23 -9t-22 9q-10 10 -10 23t9 23l295 294
q11 12 31 20t36 8h1v0v0q16 0 36 -8t31 -20q29 -28 29 -68v0q0 -17 -8.5 -36.5t-19.5 -31.5l-80 -79v-1l-221 -220q-19 -20 -52.5 -33.5t-61 -13.5t-60.5 13.5t-52.5 33t-33 52.5t-13.5 60v1q0 66 47 113l300 300q10 10 10 23t-9.5 22.5t-23 9.5t-22.5 -9l-300 -301
q-28 -27 -47 -73t-19 -85v0q0 -93 66 -159q27 -27 73 -46t84 -19h1v0q39 0 85 19t73 47l312 311q5 5 7 11q29 41 29 91v0q0 28 -14 61t-33 52v0z" />
    <glyph glyph-name="activity" unicode="&#xe6de;" 
d="M800 51v-2v-1h-575q-1 1 -1 3v477h576v-477zM224 685v2v1h128v-16q0 -13 9.5 -22.5t22.5 -9.5t22.5 9.5t9.5 22.5v16h192v-16q0 -13 9.5 -22.5t22.5 -9.5t22.5 9.5t9.5 22.5v16h127q1 -1 1 -3v-93h-576v93zM800 752h-128v16q0 13 -9.5 22.5t-22.5 9.5t-22.5 -9.5
t-9.5 -22.5v-16h-192v16q0 13 -9.5 22.5t-22.5 9.5t-22.5 -9.5t-9.5 -22.5v-16h-128q-27 0 -45.5 -19.5t-18.5 -47.5v-634q0 -28 18.5 -47.5t45.5 -19.5h576q27 0 45.5 19.5t18.5 47.5v634q0 28 -19 47.5t-45 19.5v0zM384 336h256q13 0 22.5 9.5t9.5 22.5t-9.5 22.5
t-22.5 9.5h-256q-13 0 -22.5 -9.5t-9.5 -22.5t9.5 -22.5t22.5 -9.5zM384 176h256q13 0 22.5 9.5t9.5 22.5t-9.5 22.5t-22.5 9.5h-256q-13 0 -22.5 -9.5t-9.5 -22.5t9.5 -22.5t22.5 -9.5v0z" />
    <glyph glyph-name="addition" unicode="&#xe6e1;" 
d="M512 64q-132 0 -226 94t-94 226t94 226t226 94t226 -94t94 -226t-94 -226t-226 -94zM512 768q-159 0 -271.5 -112.5t-112.5 -271.5t112.5 -271.5t271.5 -112.5t271.5 112.5t112.5 271.5t-112.5 271.5t-271.5 112.5zM684 425h-140v140q0 13 -9.5 22.5t-22.5 9.5
t-22.5 -9.5t-9.5 -22.5v-140h-140q-13 0 -22.5 -9.5t-9.5 -22.5t9.5 -22.5t22.5 -9.5h140v-140q0 -13 9.5 -22.5t22.5 -9.5t22.5 9.5t9.5 22.5v140h140q13 0 22.5 9.5t9.5 22.5t-9.5 22.5t-22.5 9.5v0z" />
    <glyph glyph-name="addpeople" unicode="&#xe6e2;" 
d="M352 477v104q0 47 31.5 79.5t76 32.5t76 -32.5t31.5 -79.5v-104q0 -47 -31.5 -80t-76 -33t-76 33t-31.5 80zM529 102l-308 1v103q0 10 9 13q11 6 40 17.5t90.5 28t106.5 16.5h32q13 0 22 9t9 23l-0.5 1.5l-0.5 1.5q45 21 72 64.5t27 96.5v104q0 73 -49.5 124.5t-119 51.5
t-119 -51.5t-49.5 -124.5v-104q0 -45 19.5 -83t53.5 -63q-163 -39 -298 -130q87 50 94 35q1 -2 0 -27v-3v-113q0 -6 2 -11q6 -19 22 -31.5t36 -12.5h309q13 0 22 9.5t9 22.5t-9 22.5t-22 9.5zM744 85q-51 0 -87 37.5t-36 90.5t36 90.5t87 37.5t87 -37.5t36 -90.5t-36 -90.5
t-87 -37.5zM743.5 405q-76.5 0 -130.5 -56t-54 -135.5t54 -136t130.5 -56.5t130.5 56.5t54 136t-54 135.5t-130.5 56zM804 237h-39v40q0 10 -6 16.5t-15 6.5t-15.5 -6.5t-6.5 -15.5v-1v-40h-40q-9 0 -15.5 -6.5t-6.5 -15.5v-1q0 -9 6.5 -15.5t15.5 -6.5h40v-43
q0 -9 6.5 -15.5t15.5 -6.5t15 6.5t6 15.5v0v43h39q9 0 15.5 6.5t6.5 15.5v1q0 9 -6.5 15.5t-15.5 6.5z" />
    <glyph glyph-name="addressbook" unicode="&#xe6e3;" 
d="M896 576h-128q-13 0 -22.5 -9.5t-9.5 -22.5t9.5 -22.5t22.5 -9.5h128q13 0 22.5 9.5t9.5 22.5t-9.5 22.5t-22.5 9.5zM896 448h-128q-13 0 -22.5 -9.5t-9.5 -22.5t9.5 -22.5t22.5 -9.5h128q13 0 22.5 9.5t9.5 22.5t-9.5 22.5t-22.5 9.5zM768 640h128q13 0 22.5 9.5
t9.5 22.5t-9.5 22.5t-22.5 9.5h-128q-13 0 -22.5 -9.5t-9.5 -22.5t9.5 -22.5t22.5 -9.5zM768 61h-574h-2v119q0 4 4 10t8 7q168 69 276 69q53 0 125.5 -18.5t103.5 -30.5t48 -20q4 -2 7.5 -7.5t3.5 -9.5v-119zM360 455v105v0q0 46 33 79t79 33t79 -33t33 -79v-105v0
q0 -46 -33 -79t-79 -33t-79 33t-33 79zM782 256q-95 42 -199 63q27 22 46 62t19 74v105q0 73 -51.5 124.5t-124 51.5t-124.5 -51.5t-52 -124.5v-105q0 -41 18.5 -77.5t50.5 -61.5q-102 -22 -186 -60q-22 -8 -36.5 -30t-14.5 -46v-132l2 -5q7 -21 24.5 -33.5t39.5 -12.5h572
q25 0 43.5 16t21.5 41l1 126q0 24 -14.5 45.5t-35.5 30.5z" />
    <glyph glyph-name="barrage" unicode="&#xe6e4;" 
d="M288 320h128q13 0 22.5 9.5t9.5 22.5t-9.5 22.5t-22.5 9.5h-128q-13 0 -22.5 -9.5t-9.5 -22.5t9.5 -22.5t22.5 -9.5zM288 192h128q13 0 22.5 9.5t9.5 22.5t-9.5 22.5t-22.5 9.5h-128q-13 0 -22.5 -9.5t-9.5 -22.5t9.5 -22.5t22.5 -9.5zM288 448h256q13 0 22.5 9.5
t9.5 22.5t-9.5 22.5t-22.5 9.5h-256q-13 0 -22.5 -9.5t-9.5 -22.5t9.5 -22.5t22.5 -9.5zM832 128h-640v512v0h640v-512zM832 704h-640v0q-26 0 -45 -18.5t-19 -45.5v-512q0 -27 19 -45.5t45 -18.5v0h640v0q26 0 45 18.5t19 45.5v512q0 27 -19 45.5t-45 18.5v0z" />
    <glyph glyph-name="businesscard" unicode="&#xe6e6;" 
d="M736 544h-192q-13 0 -22.5 -9.5t-9.5 -22.5t9.5 -22.5t22.5 -9.5h192q13 0 22.5 9.5t9.5 22.5t-9.5 22.5t-22.5 9.5zM736 416h-128q-13 0 -22.5 -9.5t-9.5 -22.5t9.5 -22.5t22.5 -9.5h128q13 0 22.5 9.5t9.5 22.5t-9.5 22.5t-22.5 9.5zM736 288h-128q-13 0 -22.5 -9.5
t-9.5 -22.5t9.5 -22.5t22.5 -9.5h128q13 0 22.5 9.5t9.5 22.5t-9.5 22.5t-22.5 9.5zM832 128h-640v512h640v-512v0v0zM832 704h-640v0q-26 0 -45 -18.5t-19 -45.5v-512q0 -27 19 -45.5t45 -18.5h640v0q26 0 45 18.5t19 45.5v512q0 27 -19 45.5t-45 18.5v0v0zM480 274h-192
v21q57 23 96 23t96 -23v-21zM355 454q0 11 7.5 18.5t18 7.5t18 -7.5t7.5 -18.5v-42v0q0 -10 -7 -17.5t-18 -7.5v0q-11 0 -18.5 7.5t-7.5 17.5v42zM512 350q-26 11 -53 19q11 21 11 43v42q0 37 -26 63.5t-63 26.5t-63.5 -26.5t-26.5 -63.5v-42q0 -23 13 -44q-31 -10 -48 -17
q-13 -6 -22.5 -20t-9.5 -29v-56l2 -4q5 -15 17 -23.5t26 -8.5h230q17 0 30.5 12t14.5 30v50q0 16 -9 29.5t-23 18.5v0z" />
    <glyph glyph-name="camera1" unicode="&#xe6e7;" 
d="M203 116v440h147l45 106q2 3 7 6.5t9 3.5h192q3 0 8.5 -3.5t6.5 -6.5l46 -106h147v-440h-608v0zM811 620h-105l-29 68q-9 20 -30.5 34t-43.5 14h-192q-23 0 -44 -14t-30 -35l-30 -67h-104q-27 0 -45.5 -19t-18.5 -45v0v-440q0 -26 18.5 -45t45.5 -19h608q26 0 45 19
t19 45v0v440q0 26 -19 45t-45 19zM506.5 256q-39.5 0 -67.5 28t-28 68t28 68t67.5 28t68 -28t28.5 -68t-28.5 -68t-68 -28zM506.5 512q-66.5 0 -113 -47t-46.5 -113t46.5 -113t113 -47t113.5 47t47 113t-47 113t-113.5 47z" />
    <glyph glyph-name="clock" unicode="&#xe6e8;" 
d="M512 83q-119 0 -203.5 84.5t-84.5 203.5t84.5 203.5t203.5 84.5t203.5 -84.5t84.5 -203.5t-84.5 -203.5t-203.5 -84.5zM512 723q-95 0 -176.5 -47.5t-128.5 -128.5t-47 -176q0 -75 30 -142t83 -116q-7 -2 -13 -8l-59 -58q-9 -10 -9 -23t9.5 -22.5t22.5 -9.5t23 10l58 58
q8 8 9 20q37 -25 95 -43t103 -18v0q105 0 193 58q2 -10 8 -17l59 -58q9 -10 22.5 -10t23 9.5t9.5 22.5t-10 23l-58 58q-4 4 -10 7q54 49 84.5 116t30.5 143q0 95 -47 176t-128.5 128.5t-176.5 47.5zM544 377v186q0 13 -9.5 22.5t-22.5 9.5t-22.5 -9.5t-9.5 -22.5v-199
q0 -14 9 -23l108 -107q9 -10 22.5 -10t22.5 9.5t9 23t-9 22.5zM183 610l90 90q9 9 9 22t-9.5 22.5t-22.5 9.5t-22 -9l-91 -90q-9 -10 -9 -23t9.5 -22.5t22.5 -9.5t23 10zM884 668l-91 91q-9 9 -22 9t-22.5 -9.5t-9.5 -22.5t9 -23l91 -90q9 -10 22.5 -10t22.5 9.5t9 23
t-9 22.5v0z" />
    <glyph glyph-name="collection" unicode="&#xe6ea;" 
d="M695 350q-15 -15 -22.5 -38.5t-3.5 -44.5l27 -158l-141 74q-19 10 -43.5 10t-43.5 -10l-141 -74l27 158q4 21 -3.5 44.5t-22.5 38.5l-115 112l158 23q21 3 40.5 17.5t29.5 33.5l70 144l71 -144q9 -19 29 -33.5t41 -17.5l158 -23zM878 439q23 23 14.5 50t-41.5 32l-190 28
q-5 0 -12 5.5t-10 9.5l-85 174q-14 30 -42.5 30t-43.5 -30l-85 -174q-2 -4 -9 -9.5t-12 -5.5l-191 -28q-32 -5 -41 -32t15 -50l138 -135q3 -4 6 -12.5t2 -13.5l-33 -191q-5 -33 18 -49q11 -8 25 -8q13 0 27 7l170 90q5 2 13.5 2t13.5 -2l170 -90q29 -16 52 0.5t17 49.5
l-32 191q-1 5 1.5 13.5t6.5 12.5l138 135v0z" />
    <glyph glyph-name="coordinates" unicode="&#xe6ec;" 
d="M512 18q-36 44 -77.5 100.5t-88 128t-76.5 140.5t-30 114q0 112 80 191.5t192 79.5t192 -79.5t80 -191.5q0 -45 -30 -113.5t-76.5 -140t-87.5 -128t-78 -101.5v0zM512 850q-95 0 -175.5 -47t-127.5 -127.5t-47 -174.5q0 -51 29 -123t65.5 -133.5t85 -129.5t72.5 -99
t44 -54q21 -26 54 -26v0q33 0 54 26q19 23 43.5 53.5t73 99t85 130t65.5 133.5t29 123q0 94 -47 174.5t-127.5 127.5t-175.5 47zM512 423q-32 0 -55 22.5t-23 55t23 55t55 22.5t55 -22.5t23 -55t-23 -55t-55 -22.5zM512 656q-64 0 -109.5 -45.5t-45.5 -110t45.5 -110
t109.5 -45.5t109.5 45.5t45.5 110t-45.5 110t-109.5 45.5z" />
    <glyph glyph-name="createtask" unicode="&#xe6ef;" 
d="M546 77l-341 -1v103v171v68v171l-1 102h615v-614h-273zM819 759h-615q-28 0 -47.5 -19.5t-19.5 -48.5v-615q0 -28 19.5 -47.5t48.5 -19.5h614q29 0 48.5 19.5t19.5 47.5v615q0 29 -20 48.5t-48 19.5v0zM692 589h-239q-14 0 -24 -10t-10 -24t10 -24t24 -10h239q14 0 24 10
t10 24t-10 24t-24 10zM692 418h-239q-14 0 -24 -10t-10 -24t10 -24t24 -10h239q14 0 24 10t10 24t-10 24t-24 10zM692 247h-239q-14 0 -24 -10t-10 -24t10 -24t24 -10h239q14 0 24 10t10 24t-10 24t-24 10zM341 589q-14 0 -24 -10t-10 -24t10 -24t24 -10t24 10t10 24t-10 24
t-24 10zM341 418q-14 0 -24 -10t-10 -24t10 -24t24 -10t24 10t10 24t-10 24t-24 10zM341 247q-14 0 -24 -10t-10 -24t10 -24t24 -10t24 10t10 24t-10 24t-24 10z" />
    <glyph glyph-name="group" unicode="&#xe6ff;" 
d="M864 91h-2l-574 1v118q0 4 4 10t8 7q168 69 276 69q53 0 126.5 -19t101.5 -30t49 -20q4 -2 7.5 -7.5t3.5 -9.5v-119zM480 495v105v0q0 46 33 79t79 33q47 0 79.5 -33t32.5 -79v0v-105v0q0 -46 -32.5 -79t-79.5 -33q-46 0 -79 33t-33 79v0zM878 286q-93 40 -191 61
q37 24 59 63t22 85v105q0 73 -51.5 124.5t-124 51.5t-124.5 -51.5t-52 -124.5v-105q0 -43 20 -81t55 -62q-110 -19 -216 -66q-22 -9 -36.5 -30.5t-14.5 -45.5v-127h1q3 -24 21.5 -40t43.5 -17h572q22 0 39.5 13t24.5 34l2 5v132q0 24 -14.5 45.5t-35.5 30.5zM360.5 362.5
q0.5 0.5 1.5 0l1 -0.5q14 0 23 9.5t9 23t-9 22.5t-23 9q-28 0 -48 20.5t-20 48.5v0v84q0 29 20 49t48 20q14 0 23 9.5t9 22.5t-9 22.5t-23 9.5q-55 0 -93.5 -39t-38.5 -94v-84q0 -48 32 -86q-67 -20 -128 -55q-17 -8 -28 -25.5t-11 -36.5v-92q0 -14 9.5 -23t22.5 -9t22.5 9
t9.5 23v91q1 4 3 6q4 1 9 6q19 10 44 21.5t67.5 24.5t72.5 13h2.5t2 0.5z" />
    <glyph glyph-name="headlines" unicode="&#xe701;" 
d="M832 128h-640v512h640v-512v0zM832 704h-640v0q-26 0 -45 -18.5t-19 -45.5v-512q0 -27 19 -45.5t45 -18.5v0h640v0q26 0 45 18.5t19 45.5v512q0 27 -19 45.5t-45 18.5v0zM288 320h128q13 0 22.5 9.5t9.5 22.5t-9.5 22.5t-22.5 9.5h-128q-13 0 -22.5 -9.5t-9.5 -22.5
t9.5 -22.5t22.5 -9.5zM544 256h-256q-13 0 -22.5 -9.5t-9.5 -22.5t9.5 -22.5t22.5 -9.5h256q13 0 22.5 9.5t9.5 22.5t-9.5 22.5t-22.5 9.5zM512 576v-256h256v256h-256zM704 384h-128v128h128v-128z" />
    <glyph glyph-name="home" unicode="&#xe702;" 
d="M768 105h-128v119q0 53 -37.5 91t-90.5 38t-90.5 -38t-37.5 -91v-118h-128v425l256 168l256 -168v-426zM576 105l-128 1v118q0 27 19 46t45 19t45 -19t19 -46v-119zM881 533l-81 53v103q0 13 -9.5 22.5t-22.5 9.5t-22.5 -9.5t-9.5 -22.5v-61l-206 135q-8 5 -17 5h-2h-1
q-9 0 -16 -5l-352 -230q-14 -9 -14 -27q0 -13 9.5 -22.5t22.5 -9.5q10 0 18 6l14 9v-393q0 -23 18 -39t43 -16h518q25 0 43 16t18 39v393l14 -9q8 -6 17 -6q14 0 23 9.5t9 22.5q0 18 -14 27v0z" />
    <glyph glyph-name="label" unicode="&#xe706;" 
d="M837 421l-355 -356l-290 289l356 356q23 3 81 3q40 0 90 -1.5t82.5 -2.5t33.5 -2q9 -232 2 -286v0zM904 708q0 28 -20 48t-47 20v0q-150 5 -208 5q-72 0 -93 -3.5t-30 -12.5l-362 -362q-20 -20 -20 -48.5t20 -48.5l289 -289q20 -20 48.5 -20t48.5 20l362 362q8 7 11 22
t5.5 88t-4.5 219v0zM637 482q-21 0 -36 15t-15 36t15 36t36 15t36 -15t15 -36t-15 -36t-36 -15zM637.5 652q-49.5 0 -84.5 -35t-35 -84t35 -84t84.5 -35t84.5 35t35 84t-35 84t-84.5 35z" />
    <glyph glyph-name="like" unicode="&#xe707;" 
d="M797 378l-284 -295l-284 292q-16 19 -26.5 49t-10.5 54v0q0 67 47 114.5t113 47.5q36 0 75 -21t58 -51l27 -41l27 41q19 30 58 51t75 21q66 0 113 -47.5t47 -114.5q0 -58 -35 -100zM672 704v0q-39 0 -86 -20t-74 -48q-27 28 -74 48t-86 20v0q-93 0 -158.5 -66t-65.5 -160
q0 -81 53 -145l286 -294q18 -19 45 -19v0q26 0 45 19l288 296q21 26 36 68t15 75v0q0 94 -65.5 160t-158.5 66v0z" />
    <glyph glyph-name="lock1" unicode="&#xe709;" 
d="M224 96v320v0h576v-320h-576zM394 579q0 52 36.5 88.5t88 36.5t88 -36.5t36.5 -88.5v-99h-249v99zM800 480h-93v99q0 78 -55 133.5t-133 55.5t-133.5 -55.5t-55.5 -133.5v-99h-106q-27 0 -45.5 -19t-18.5 -45v0v-320v0q0 -26 18.5 -45t45.5 -19h576q27 0 45.5 19t18.5 45
v0v320v0q0 26 -18.5 45t-45.5 19zM512 352q-13 0 -22.5 -9.5t-9.5 -22.5v-128q0 -13 9.5 -22.5t22.5 -9.5t22.5 9.5t9.5 22.5v128q0 13 -9.5 22.5t-22.5 9.5v0z" />
    <glyph glyph-name="manage" unicode="&#xe70b;" 
d="M203 472v192h192v-192h-192zM395 728h-192q-27 0 -45.5 -18.5t-18.5 -45.5v-192q0 -26 18.5 -45t45.5 -19h192q26 0 45 19t19 45v192q0 27 -19 45.5t-45 18.5v0zM203 88v192h192v-192h-192zM395 344h-192q-27 0 -45.5 -18.5t-18.5 -45.5v-192q0 -26 18.5 -45t45.5 -19
h192q26 0 45 19t19 45v192q0 27 -19 45.5t-45 18.5v0zM683 432l-136 136l136 136l136 -136zM864 613l-136 136q-19 19 -45.5 19t-45.5 -19l-135 -136q-19 -18 -19 -45v0v0q0 -26 19 -45l135 -136q19 -19 45.5 -19t45.5 19l136 136q18 19 18 45.5t-18 44.5v0zM587 88v192h192
v-192h-192zM779 344h-192q-27 0 -45.5 -18.5t-18.5 -45.5v-192q0 -26 18.5 -45t45.5 -19h192q26 0 45 19t19 45v192q0 27 -19 45.5t-45 18.5v0z" />
    <glyph glyph-name="picture1" unicode="&#xe716;" 
d="M384 77l259 259l176 -176v-83h-435v0zM205 691h614v-435l-151 152q-10 10 -24.5 10t-24.5 -10l-331 -331h-83v614zM819 759h-615q-28 0 -47.5 -19.5t-19.5 -48.5v-614q0 -29 19.5 -48.5t47.5 -19.5h615q29 0 48.5 19.5t19.5 48.5v614q0 29 -19.5 48.5t-48.5 19.5z
M410 521v0q14 0 24 -10t10 -24v-1v0q0 -14 -10 -24t-24 -10v0h-1q-14 0 -24 10t-10 24v0q0 15 10 25t25 10zM409.5 384q42.5 0 72.5 30t30 72.5t-30 72.5t-72.5 30t-72.5 -30t-30 -72.5t30 -72.5t72.5 -30z" />
    <glyph glyph-name="remind" unicode="&#xe71f;" 
d="M619 164h-392q53 111 53 168v172q0 91 68 156t164 65t164 -65t68 -156v-169q0 -58 53 -171h-178zM512 61q-41 0 -62 34h124q-21 -34 -62 -34zM881 148l3 1q-22 41 -45 97.5t-23 88.5v169q0 120 -89 205t-215 85t-215 -85t-89 -205v-172q0 -28 -21.5 -83t-46.5 -100l3 -1
q-6 -8 -6 -19q0 -14 10.5 -24t24.5 -10h202q12 -44 50.5 -73t87.5 -29t87.5 29t50.5 73h202q15 0 25 10t10 25q0 10 -6 18v0z" />
    <glyph glyph-name="collect" unicode="&#xe725;" 
d="M691 273q-19 -18 -28 -46t-5 -54l24 -136l-122 64q-22 12 -52 12t-52 -12l-122 -64l24 136q4 26 -5 54t-28 46l-98 97l136 20q25 4 49 21t35 41l61 123l61 -123q11 -24 35 -41t49 -21l136 -20l-98 -97v0zM872 342q28 28 17.5 60.5t-49.5 38.5l-176 26q-6 1 -14.5 7
t-11.5 12l-78 160q-18 36 -52 36t-52 -36l-78 -160q-3 -6 -11.5 -12t-14.5 -7l-176 -26q-39 -6 -49.5 -38.5t17.5 -60.5l127 -124q5 -5 8 -15t2 -17l-30 -176q-7 -39 21 -59q14 -10 31 -10q16 0 32 8l157 83q6 3 16 3t16 -3l157 -83q35 -18 63 2t21 60l-30 175q-1 7 2 17
t8 15zM256 541q16 0 27.5 11.5t11.5 27.5v205q0 16 -11.5 27t-27.5 11t-27.5 -11t-11.5 -27v-205q0 -16 11.5 -27.5t27.5 -11.5zM411.5 658q16.5 0 27.5 11t11 27v89q0 16 -11 27t-27.5 11t-27.5 -11t-11 -27v-89q0 -16 11 -27t27.5 -11zM606 658q16 0 27.5 11t11.5 27v89
q0 16 -11.5 27t-27.5 11t-27.5 -11t-11.5 -27v-89q0 -16 11.5 -27t27.5 -11zM761 552q16 0 27.5 11t11.5 27v205q0 16 -11.5 27.5t-27.5 11.5t-27.5 -11.5t-11.5 -27.5v-205q0 -16 11.5 -27t27.5 -11z" />
    <glyph glyph-name="setup" unicode="&#xe728;" 
d="M825 329q-25 -4 -52 -22t-39 -40q-18 -30 -18 -64q0 -25 9 -47q-20 -18 -53.5 -37.5t-59.5 -27.5q-16 19 -45 33.5t-54 14.5h-1h-1q-25 0 -54 -14.5t-45 -33.5q-26 8 -59.5 27.5t-53.5 37.5q9 22 9 47q0 34 -18 64q-12 22 -39 40t-52 22q-7 33 -7 66t7 65q25 4 52 22
t39 41q18 29 18 64q0 24 -9 46q20 19 53.5 38t59.5 28q16 -20 45 -34t55 -14v0q62 0 100 48q26 -9 59.5 -28t53.5 -38q-9 -22 -9 -46q0 -35 18 -64q12 -23 39 -41t52 -22q7 -32 7 -65t-7 -66zM881 499q-2 10 -11 17t-19 7h-2h-5q-15 0 -31 9t-24 23q-9 14 -9 32q0 19 11 35
q6 8 6 18q0 13 -9 22q-32 32 -85 63t-97 42q-4 1 -8 1q-8 0 -16.5 -5t-12.5 -13q-7 -15 -23.5 -25t-33.5 -10v0v0q-17 0 -33.5 10t-23.5 25q-4 8 -12.5 13t-16.5 5q-4 0 -8 -1q-44 -11 -97 -42t-85 -63q-9 -9 -9 -22q0 -10 6 -18q11 -16 11 -35q0 -18 -9 -32q-8 -14 -24 -23
t-31 -9h-5h-2q-10 0 -19 -7t-11 -17q-15 -51 -15 -104v0q0 -54 15 -105q2 -10 11 -17t19 -7h2q2 1 4 1q16 0 32 -9.5t24 -22.5q20 -35 -2 -68q-6 -8 -6 -18q0 -13 9 -22q32 -32 85 -63t97 -42q4 -1 8 -1q8 0 16.5 5.5t12.5 12.5q7 15 23.5 25.5t33.5 10.5v0q40 0 57 -36
q4 -7 12.5 -12.5t16.5 -5.5q4 0 8 1q44 11 97 42t85 63q9 9 9 22q0 10 -6 18q-11 16 -11 36q0 17 9 32q8 13 24 22.5t31 9.5q2 0 5 -1q11 0 20 6.5t12 17.5q15 51 15 104v1q0 53 -15 105v-1zM512 299q-40 0 -68 28t-28 67.5t28 68t68 28.5t68 -28.5t28 -68t-28 -67.5
t-68 -28zM512 555q-66 0 -113 -47t-47 -113.5t47 -113t113 -46.5t113 46.5t47 113t-47 113.5t-113 47v0z" />
    <glyph glyph-name="systemSeting" unicode="&#xe60b;" horiz-adv-x="1170" 
d="M746 325q-24 0 -41 -17t-17 -41t17 -41t41 -17t41 17t17 41t-17 41t-41 17zM746 152q-47 0 -80.5 33.5t-33.5 81t33.5 81t80.5 33.5t80.5 -33.5t33.5 -81t-33.5 -81t-80.5 -33.5zM815 74q1 -1 2 -1v0l55 31q-7 17 -7 33q0 35 24 60.5t59 27.5q4 19 4 40q0 16 -4 40
q-35 2 -59 27.5t-24 60.5q0 16 7 34l-54 30v0v0q-1 0 -2 -1q-26 -26 -61 -37l4 2q8 2 8 2.5t-2 -0.5q-10 -1 -17 -1q-22 0 -47 18q-30 21 -47 53q13 -17 18.5 -25t6 -9.5l0.5 -1.5h-1l-56 -31q8 -17 8 -33q0 -35 -24.5 -60.5t-58.5 -27.5q-5 -19 -5 -40q0 -17 4 -40
q35 -2 59.5 -27.5t24.5 -60.5q0 -16 -8 -33l53 -30h1h1q26 27 62 40l-1 -1h-1h-1l-9 -4h3q10 2 16 2q23 0 49 -19q11 -9 20 -18v0zM833 -10q-17 0 -28 11.5t-28.5 23.5t-33 12t-33 -12t-27.5 -23q-11 -11 -28 -11q-7 0 -14 3h-1l-71 40h-1q-14 11 -14 28q0 8 3 14q6 14 6 29
q0 31 -22 53.5t-54 22.5h-3q-9 0 -15.5 7.5t-9.5 19.5q-6 31 -6 57t6 57q3 13 9.5 20.5t16.5 7.5h2q32 0 54 22t22 54q0 9 -7 29q-2 6 -2 13q0 18 14 28l1 1l75 41h1q7 3 14 3q17 0 28 -11q10 -11 27.5 -22.5t32 -11.5t32 11t27.5 22q11 11 28 11q7 0 14 -3v0l73 -40l1 -1
q10 -7 13.5 -19t-1.5 -22q-7 -20 -7 -29q0 -32 22.5 -54t53.5 -22h3q9 0 16 -7.5t9 -20.5q6 -32 6 -57q0 -28 -6 -57q-2 -12 -9 -19.5t-16 -7.5h-3q-31 0 -53.5 -22.5t-22.5 -53.5q0 -14 7 -29q3 -6 3 -14q0 -17 -15 -27l-1 -1l-74 -41h-1q-6 -3 -13 -3v0v0zM1004 535v0
q0 -16 -11 -27t-26.5 -11t-26.5 11t-11 27v0v150q0 8 -5.5 13.5t-13.5 5.5h-678q-8 0 -13.5 -5.5t-5.5 -13.5v-452q0 -7 5.5 -13t13.5 -6h169v0q16 0 27 -11t11 -26.5t-11 -26.5t-27 -11v0h-225h-1q-15 0 -26 11t-11 27v0v565q0 15 11 26.5t27 11.5h790h1q15 0 26 -11.5
t11 -26.5v0v-207zM307 26q0 16 11.5 27t26.5 11h150h1q15 0 26 -11t11 -26.5t-11 -27t-26 -11.5h-1h-150v0q-16 0 -27 11.5t-11 26.5v0z" />
    <glyph glyph-name="shouquan" unicode="&#xe8e2;" 
d="M308 419q197 85 351 225l-298 -108h-50v29h50v80h30v-80h47v-29h-47v-78q16 8 41 21q1 -21 4 -33q-21 -11 -45 -23v-137q0 -43 -41 -44h-32q-4 38 -14 73q23 -40 41 -40q16 0 16 16v117q-25 -13 -49 -25zM461 404v29h216v-29q-39 -81 -116 -123q20 4 49 3t41 -2t36.5 -5
t34.5 -5q-74 -99 -105 -220q9 53 10.5 93t-1 62.5t-12 39.5t-16 23t-20.5 15q-3 2 -5 4q-57 -37 -140 -53q-43 72 -111 121q52 -29 90.5 -45t64 -17.5t40 2t31.5 12.5q-41 38 -62 95h-25v0zM445 509h178q102 176 134 384l-62 -320q-115 -202 -292 -343l307 279v-64h-31v35
h-203v-35h-31v64v0zM454 585l-6 30q139 4 253 15l6 -29q-128 -11 -253 -16zM466 567l25 13q85 -126 114 -279l-108 210q-43 90 -116 154zM640 404h-122q19 -47 57 -77q43 31 65 77zM547 575l26 11q81 -135 107 -296l-105 227q-45 105 -123 184zM511 -16q-8 0 -17 1
q-10 2 -25.5 6t-52.5 20.5t-70.5 39.5t-73.5 67.5t-69 99.5t-48.5 139.5t-19.5 184.5v121q0 44 32 74q30 26 69 26h6q6 -1 19 -1q50 0 89 9q39 10 95 63q7 6 11 9q23 14 55 14t55 -15q6 -3 23 -17q59 -47 86 -54q39 -9 88 -9h17q4 1 8 1q40 0 69 -26q32 -30 32 -74v-121
q0 -100 -19.5 -184.5t-48.5 -140t-69.5 -99.5t-74.5 -67t-71 -39.5t-52.5 -20.5t-25.5 -6q-8 -1 -17 -1v0zM237 722q-25 0 -42 -16q-19 -17 -19 -43v-121q0 -93 17.5 -171.5t43.5 -130t62.5 -92t67 -62t64 -37t47 -19t22.5 -4.5q11 -2 22 0q9 1 22.5 4.5t47.5 19t64.5 36.5
t67 62t63 92.5t44 130t17.5 171.5v121q0 26 -19 43q-17 16 -41 16v0h-1.5h-2.5q-6 -1 -21 -1q-54 0 -98 10q-36 9 -102 62q-14 12 -18 14q-14 9 -33.5 9.5t-32.5 -8.5q-9 -6 -13 -14q-59 -51 -106 -63q-44 -10 -99 -10q-15 0 -22 1h-2z" />
    <glyph glyph-name="bar" unicode="&#xe61e;" 
d="M868 52h-24v284v1q0 19 -14 33t-33 14h-1h-94v0q-20 0 -34 -14t-14 -33v-1v-284h-47v664v0q0 20 -14 34t-34 14v0h-94v0q-20 0 -34 -14t-14 -34v0v-664h-47v475q-1 19 -14.5 33t-33.5 14v0h-94h-1q-19 0 -33 -14t-14 -33v-475h-24q-10 0 -17 -7t-7 -17t7 -17t17 -7h712v0
q10 0 17 7t7 17t-7 17t-17 7v0z" />
    <glyph glyph-name="star" unicode="&#xe624;" 
d="M514 757l121 -243l268 -39l-194 -190l46 -267l-241 126l-240 -126l46 267l-195 190l269 39zM591 673l80 80l11 -11l-80 -80zM165 247l80 80l10 -11l-79 -80zM632 633l48 47l11 -11l-48 -47zM216 216l47 47l11 -11l-47 -47z" />
    <glyph glyph-name="jinyong" unicode="&#xe66c;" 
d="M512 834q-122 0 -225.5 -60.5t-164 -164t-60.5 -225.5t60.5 -225.5t164 -164t225.5 -60.5t225.5 60.5t164 164t60.5 225.5t-60.5 225.5t-164 164t-225.5 60.5zM512 722q91 0 169 -45.5t123.5 -123.5t45.5 -169q0 -66 -23 -118l-574 332q47 59 113.5 91.5t145.5 32.5z
M512 46q-91 0 -169 45.5t-123.5 123.5t-45.5 169q0 66 23 118l574 -332q-47 -59 -113.5 -91.5t-145.5 -32.5z" />
    <glyph glyph-name="guanggao" unicode="&#xe652;" horiz-adv-x="1026" 
d="M784 480q-9 10 -25 14q-8 3 -55 3h-24l-31 -225h43q4 0 11.5 -1.5t9.5 -1.5q3 0 10 -1t10 -1l6 2q15 3 21 8q11 11 21 34q10 25 16 69q6 43 2 66q-6 22 -15 34zM514.5 834q-91.5 0 -175 -35.5t-143.5 -96t-95.5 -143.5t-35.5 -174.5t35.5 -175t95.5 -143.5t143.5 -95.5
t175 -35.5t174.5 35.5t143.5 95.5t96 143.5t35.5 175t-35.5 174.5t-96 143.5t-143.5 96t-174.5 35.5zM502 179h-84l-18 93h-126l-40 -93h-94l194 410h87l92 -410h-11zM863 290q-19 -43 -48 -70q-22 -21 -57 -33q-23 -8 -66 -8h-142l53 410h135q33 0 69 -11q29 -10 52 -42
q19 -26 26 -66t0 -94q-6 -48 -22 -86zM313 345h69l-21 105z" />
    <glyph glyph-name="allot" unicode="&#xe60a;" 
d="M589 442q45 20 97 20v0h5.5h4.5q25 61 12 133q-14 79 -79 125t-143 32q-82 -15 -134.5 -72t-39.5 -133q8 -44 28 -84l-189 -273q-13 -18 -9 -41l8 -46q-1 5 -2 11l-1 5l1 -2q7 -30 10 -30l63 -1q21 4 33 22l75 117l1 1l66 -5l87 137h0.5h0.5q12 17 26 30q52 53 124 68z
M192 161l-10 -4l1 10l182 264l11 -10zM467 646q22 31 59 37.5t67 -15.5q39 -28 39 -75q0 -29 -16 -53q-6 -7 -11.5 -11.5t-10.5 -7t-12 -1.5t-11 2.5t-12.5 6.5t-12.5 7.5t-14.5 10t-14.5 10.5t-17 12t-16.5 12t-12 10t-10 12t-3.5 12t0.5 14.5t8.5 16.5zM467 646z
M683.5 411q-82.5 0 -140.5 -58t-58 -140.5t58 -141t140.5 -58.5t141 58.5t58.5 141t-58.5 140.5t-141 58zM799 130q0 -36 -111 -36t-111 36v9q0 15 22 30t51 26q2 1 4.5 3t4.5 7.5t-1 13.5q-29 30 -29 71q0 30 17 47t42 17t42.5 -17t17.5 -47q0 -41 -29 -71v0q-7 -21 5 -24
q30 -10 52.5 -25.5t22.5 -30.5v-9zM799 130z" />
    <glyph glyph-name="logo" unicode="&#xe606;" horiz-adv-x="1306" 
d="M230 130v501l424 101l-635 150v-1003l635 150zM266 381v0q0 -12 5 -20t12 -8t12 8t5 20v0v0q0 11 -5 19.5t-12 8.5t-12 -8.5t-5 -19.5v0zM654 732v0v-703v0l636 -150v1003zM1270 -96l-529 125l342 81l15 4v533l-15 3l-343 82l530 125v-953zM1009 380.5q0 11.5 4.5 20
t11.5 8.5t12 -8.5t5 -20t-5 -19.5t-12 -8t-11.5 8t-4.5 19.5z" />
    <glyph glyph-name="click" unicode="&#xe638;" 
d="M640 -90q-23 -11 -32 7q-32 26 -154 102q-31 17 -61 38t-69 52t-49 38q-56 48 -128 96q-24 15 -37.5 37t-13.5 46q0 30 15 56t43 40q38 13 64 7l-148 262q-11 23 -16 50t5.5 60t42.5 50q45 23 77 7q13 -5 26.5 -15t21 -19.5l15 -19t8.5 -10.5l70 -116q11 22 32 32
q60 30 102 13q7 0 20 -13q25 26 44 39q37 18 84 6q25 -13 32 -19q25 26 44 32q48 13 88.5 -16.5t59.5 -66.5l64 -109q0 -1 8.5 -17t20.5 -44t24.5 -63t21 -82.5t8.5 -94.5q0 -32 0.5 -58.5t1.5 -41.5t2 -25t1.5 -15.5t0.5 -6.5v-13q0 -13 -13 -25zM179 358q-25 -8 -25 -44
q0 -16 19 -26q20 -11 42.5 -27t49.5 -37t42 -32q120 -90 173 -122q139 -85 147 -89l288 166v135q0 43 -7 86.5t-17.5 74.5t-21 56.5t-17.5 38.5l-7 12l-64 116q-1 1 -2 3t-5.5 8t-8.5 10.5t-10.5 10.5t-13 9t-15 5t-16.5 -2q-4 0 -5 -0.5t-1 -5.5q-4 0 -7.5 -4.5t-4.5 -14.5
t6 -26q-13 -13 -13 -19q5 -10 -0.5 -22t-18.5 -16q-11 -5 -22.5 0t-16.5 19q-6 6 -6 19q-19 38 -45 51q-2 0 -8 1.5t-12 1.5t-12 -3q-11 -7 -16.5 -13t-8 -16t5.5 -22l19 -26q5 -14 1 -27t-14 -17q-10 -9 -21.5 -6.5t-16.5 12.5q-13 13 -19 32l-13 19q0 7 -7 7q-6 25 -25 32
q-10 4 -22.5 0.5t-22.5 -13.5q-28 -14 -13 -51l32 -52q12 -35 -6 -44q-10 -10 -22.5 -10t-22.5 10q-26 25 -38 64l-116 192q-15 30 -38 38q-19 0 -26 -6q-13 -7 -17.5 -19t-3 -21.5t5 -19.5t3.5 -11l192 -339q5 -9 3.5 -21.5t-10.5 -16.5q-19 -10 -38 0q-25 20 -49.5 20
t-40.5 -8z" />
  </font>
</defs>
</svg>
